<?xml version="1.0"?>
<svg width="220" height="220" xmlns="http://www.w3.org/2000/svg" xmlns:xlink="http://www.w3.org/1999/xlink">
 <defs>
  <linearGradient y2="-0.888568" x2="0.006231" y1="3.451887" x1="1.6603" id="SVGID_20_">
   <stop stop-color="#FAA100" offset="0.3836"/>
   <stop stop-color="#BF73F2" offset="0.6584"/>
   <stop stop-color="#C370E6" offset="0.6649"/>
   <stop stop-color="#CC68C7" offset="0.6852"/>
   <stop stop-color="#D461AB" offset="0.7081"/>
   <stop stop-color="#DB5B95" offset="0.7341"/>
   <stop stop-color="#E05784" offset="0.7643"/>
   <stop stop-color="#E35479" offset="0.8017"/>
   <stop stop-color="#E55272" offset="0.8543"/>
   <stop stop-color="#E65270" offset="1"/>
  </linearGradient>
  <linearGradient y2="-1.191665" x2="0.081394" y1="4.221943" x1="1.2519" id="SVGID_21_">
   <stop stop-color="#FAA100" offset="0.3836"/>
   <stop stop-color="#BF73F2" offset="0.6584"/>
   <stop stop-color="#C370E6" offset="0.6649"/>
   <stop stop-color="#CC68C7" offset="0.6852"/>
   <stop stop-color="#D461AB" offset="0.7081"/>
   <stop stop-color="#DB5B95" offset="0.7341"/>
   <stop stop-color="#E05784" offset="0.7643"/>
   <stop stop-color="#E35479" offset="0.8017"/>
   <stop stop-color="#E55272" offset="0.8543"/>
   <stop stop-color="#E65270" offset="1"/>
  </linearGradient>
  <linearGradient y2="-0.330195" x2="0.487649" y1="1.259138" x1="0.518079" id="SVGID_22_">
   <stop stop-color="#FAA7B5" offset="0"/>
   <stop stop-color="#FAA100" offset="0.3836"/>
   <stop stop-color="#BF73F2" offset="0.7317"/>
  </linearGradient>
  <linearGradient y2="0.528619" x2="0.599458" y1="1.741459" x1="-0.519119" id="SVGID_23_">
   <stop stop-color="#F6E8A0" offset="0"/>
   <stop stop-color="#E65271" offset="1"/>
  </linearGradient>
  <linearGradient y2="0.064691" x2="0.693343" y1="1.155951" x1="-0.328791" id="SVGID_24_">
   <stop stop-color="#F6E8A0" offset="0"/>
   <stop stop-color="#E65271" offset="1"/>
  </linearGradient>
  <linearGradient y2="-0.028723" x2="0.387375" y1="1.442379" x1="0.609011" id="SVGID_25_">
   <stop stop-color="#F6E8A0" offset="0"/>
   <stop stop-color="#E65271" offset="1"/>
  </linearGradient>
  <linearGradient y2="1.994865" x2="0.101062" y1="-0.239957" x1="0.784636" id="SVGID_26_">
   <stop stop-color="#E65271" offset="0"/>
   <stop stop-color="#FAA100" offset="0.3836"/>
  </linearGradient>
  <linearGradient y2="0.018601" x2="1.186861" y1="1.384265" x1="-0.216693" id="SVGID_27_">
   <stop stop-color="#F6E8A0" offset="0"/>
   <stop stop-color="#E65271" offset="1"/>
  </linearGradient>
  <linearGradient y2="0.476962" x2="0.351926" y1="0.885572" x1="2.809976" id="SVGID_28_">
   <stop stop-color="#FAA7B5" offset="0"/>
   <stop stop-color="#FAA100" offset="0.3836"/>
   <stop stop-color="#BF73F2" offset="0.7317"/>
  </linearGradient>
  <linearGradient y2="-0.24628" x2="-0.428727" y1="2.288233" x1="2.472218" id="SVGID_29_">
   <stop stop-color="#FAA7B5" offset="0"/>
   <stop stop-color="#FAA100" offset="0.3836"/>
   <stop stop-color="#BF73F2" offset="0.7317"/>
  </linearGradient>
  <radialGradient gradientUnits="userSpaceOnUse" gradientTransform="matrix(-0.4579 0.1387 0.2675 0.883 37062.1875 -22360.3281)" r="14.877" cy="11560.2988" cx="87651.25" id="SVGID_30_">
   <stop stop-color="#FFFFFF" offset="0.0091"/>
   <stop stop-color="#FFFFFF" stop-opacity="0" offset="1"/>
  </radialGradient>
  <radialGradient gradientUnits="userSpaceOnUse" gradientTransform="matrix(-0.4785 0 0 0.4785 37453.6211 -16583.9492)" r="23.2557" cy="34685.1992" cx="78312.1094" id="SVGID_31_">
   <stop stop-color="#FFFFFF" offset="0.0091"/>
   <stop stop-color="#FFFFFF" stop-opacity="0" offset="1"/>
  </radialGradient>
  <radialGradient gradientUnits="userSpaceOnUse" gradientTransform="matrix(-0.4785 0 0 0.4785 37453.6211 -16583.9492)" r="23.246" cy="34685.1953" cx="78312.125" id="SVGID_32_">
   <stop stop-color="#FFFFFF" offset="0.0091"/>
   <stop stop-color="#FFFFFF" stop-opacity="0" offset="1"/>
  </radialGradient>
  <linearGradient y2="-0.48936" x2="0.154042" y1="1.511889" x1="0.914249" id="SVGID_33_">
   <stop stop-color="#FAA7B5" offset="0.0041"/>
   <stop stop-color="#FAA100" offset="0.3836"/>
  </linearGradient>
  <linearGradient y2="-0.48066" x2="0.208534" y1="2.314894" x1="0.887271" id="SVGID_34_">
   <stop stop-color="#FAA7B5" offset="0"/>
   <stop stop-color="#FAA100" offset="0.3836"/>
   <stop stop-color="#BF73F2" offset="0.7317"/>
  </linearGradient>
  <linearGradient y2="-0.037323" x2="0.355486" y1="2.644422" x1="1.13963" id="SVGID_35_">
   <stop stop-color="#FAA7B5" offset="0"/>
   <stop stop-color="#FAA100" offset="0.3836"/>
   <stop stop-color="#BF73F2" offset="0.7317"/>
  </linearGradient>
  <linearGradient y2="-0.116954" x2="0.629247" y1="1.984667" x1="0.155565" id="SVGID_36_">
   <stop stop-color="#FAA7B5" offset="0"/>
   <stop stop-color="#FAA100" offset="0.3836"/>
   <stop stop-color="#BF73F2" offset="0.7317"/>
  </linearGradient>
  <linearGradient y2="-3.716229" x2="0.141092" y1="2.515458" x1="0.661222" id="SVGID_37_">
   <stop stop-color="#FAA7B5" offset="0"/>
   <stop stop-color="#FAA100" offset="0.3836"/>
   <stop stop-color="#BF73F2" offset="0.7317"/>
  </linearGradient>
  <linearGradient y2="-0.543867" x2="-0.132648" y1="1.619806" x1="1.178976" id="SVGID_38_">
   <stop stop-color="#FAA7B5" offset="0"/>
   <stop stop-color="#FAA100" offset="0.3836"/>
   <stop stop-color="#BF73F2" offset="0.7317"/>
  </linearGradient>
  <linearGradient y2="Infinity" x2="Infinity" y1="Infinity" x1="Infinity" id="SVGID_39_">
   <stop stop-color="#E65271" offset="0"/>
   <stop stop-color="#FAA100" offset="0.3836"/>
  </linearGradient>
 </defs>
 <symbol viewBox="-50.452 -50.955 100.904 101.91" id="New_Symbol_3">
  <path id="svg_1" d="m14.113,-50.012001c-1.353,0.017002 -2.704,0.021 -4.056,0.021l-3.489,-0.002998c0,0 -9.98,0.003998 -14.75,0.003998c-0.749,0 -1.5,-0.002998 -2.25,-0.004997c-0.750999,-0.002003 -1.501,-0.005001 -2.252,-0.005001c-0.47,0 -0.938,0.000999 -1.407,0.004002c-2.838001,0.016998 -5.551001,0.357998 -8.063,1.015999c-10.001999,2.617001 -17.576,8.550999 -22.512001,17.633999c-2.366001,4.354 -3.710999,9.225 -3.994999,14.473001c-0.125999,2.334 -0.007,4.725999 0.355,7.107999c0.042999,0.284 0.095001,0.568001 0.146999,0.854l0.115002,0.650001l0.195,-0.192c0.103001,-0.102 0.134998,-0.208 0.159,-0.288c0.097,-0.318 0.188,-0.639 0.279999,-0.958c0.189999,-0.665 0.388,-1.353 0.619999,-2.013c1.701,-4.851999 4.284,-9.396999 7.896,-13.902c0.143002,-0.177999 0.250999,-0.375 0.313,-0.566c1.225002,-3.771 3.354,-7.028 6.326,-9.689999c2.891001,-2.588001 6.357,-4.526001 10.316002,-5.771c-2.539001,1.086998 -4.889,2.475998 -7.003,4.142998c-3.448,2.719002 -5.933001,6.046001 -7.383001,9.890001c-0.145,0.386 -0.266998,0.851999 -0.070999,1.368c0.064999,0.176001 0.111,0.358 0.158001,0.541c0.031998,0.125999 0.063,0.251999 0.101997,0.376999c0.781002,2.553001 1.967003,4.555 3.626003,6.117001c1.544998,1.455999 3.512999,2.521 6.016998,3.257c2.337999,0.688 4.778,0.998 7.136999,1.298l1.011002,0.129999c1.320999,0.173 2.659999,0.377001 3.954,0.577001l0.779,0.12c0.289999,0.044 0.577999,0.107 0.875999,0.172l0.727,0.152l-0.191,-0.325001c-0.015,-0.028 -0.027,-0.051 -0.048,-0.075c-1.224999,-1.372 -2.253,-2.896999 -3.055,-4.538c-0.068,-0.139 -0.214,-0.267 -0.353999,-0.312c-0.174001,-0.056999 -0.347,-0.112999 -0.52,-0.171c-0.551001,-0.184999 -1.118999,-0.371 -1.697001,-0.486c-0.622,-0.124001 -1.258999,-0.214001 -1.875999,-0.299999c-0.493999,-0.07 -0.988001,-0.139 -1.479,-0.229c-1.653,-0.294001 -2.931999,-0.825001 -3.899,-1.636c0.212,0.050999 0.431,0.082998 0.646,0.113998c0.300001,0.043001 0.608,0.089001 0.889,0.186001c1.524,0.530001 3.196001,0.775999 5.263,0.775999l0.278999,-0.000999c0.371,-0.004 0.741001,-0.021 1.117001,-0.039l0.726,-0.030001l-0.053999,-0.178999c-1.483002,-4.845001 -1.441,-9.599001 0.118999,-14.157001c-0.653,3.091002 -0.772001,5.962002 -0.368,8.737001c0.618,4.240999 2.486,7.896 5.556,10.863c2.07,2.000999 4.667,3.681 7.938,5.132999c2.841,1.263 5.801,2.021 8.589,2.691l0.527,0.127c1.988,0.478 4.044,0.972 6.036,1.557c2.987,0.875 5.583,2.314 7.716,4.284c0.319,0.295 0.682001,0.63 0.968,1c2.037001,2.64 4.412001,4.513 7.257999,5.727c0.082001,0.035 0.175001,0.122 0.235001,0.221c0.931,1.52 2.048,2.639 3.414999,3.424c0.305002,0.175 0.608999,0.263 0.904001,0.263c0.374001,0 0.748001,-0.144 1.112999,-0.421c0.138,-0.106 0.264,-0.217 0.375,-0.33c0.479,-0.481 0.862999,-1.073 1.211002,-1.859c0.042999,-0.094 0.081997,-0.124 0.186996,-0.137c0.347,-0.046 0.705002,-0.093 1.060001,-0.163c5.812,-1.15 9.859001,-5.622 10.562,-11.673c0.019001,-0.161 0.032001,-0.324 0.044998,-0.486c0.031002,-0.384 0.062,-0.78 0.177002,-1.137c0.144001,-0.451 0.361,-0.895 0.573002,-1.321c0.092999,-0.189 0.188,-0.382 0.275997,-0.575c0.075001,-0.166 0.153999,-0.33 0.232002,-0.494c0.184998,-0.389 0.374001,-0.785999 0.530998,-1.193c0.241001,-0.621 0.269001,-1.263 0.084,-1.908c-0.079998,-0.276999 -0.248001,-0.318 -0.341,-0.318c-0.070999,0 -0.146999,0.023 -0.223999,0.071c-0.16,0.103 -0.309002,0.217 -0.458,0.335c-0.07,0.058 -0.142002,0.111 -0.214001,0.165c-0.079998,0.062 -0.159,0.123 -0.237,0.188c-0.187,0.146 -0.362,0.288 -0.556999,0.395c-0.07,0.039 -0.143002,0.061 -0.214001,0.061c-0.074001,0 -0.145,-0.022 -0.210999,-0.065001l0.273998,-0.245c0.488998,-0.434 0.977001,-0.868999 1.457001,-1.309999c0.100998,-0.092 0.167999,-0.261001 0.159,-0.400001c-0.057003,-0.908 -0.374001,-1.660999 -0.945,-2.241c-0.68,-0.687999 -1.393002,-1.022 -2.178001,-1.022c-0.167999,0 -0.339001,0.016001 -0.513,0.047001c-0.031998,-0.305 -0.097,-0.419001 -0.350998,-0.555c-1.606003,-0.871 -3.172001,-1.295 -4.785,-1.295l-0.252003,0.002001c-1.098999,0 -2.168999,-0.312 -3.368999,-0.981001c-0.412998,-0.229 -0.778,-0.386 -1.118999,-0.476c-1.030998,-0.274 -2.071999,-0.376999 -3.013,-0.421c0.403999,-0.056 0.826,-0.083 1.278999,-0.083c0.289001,0 0.587002,0.011999 0.909,0.032999l0.184002,0.019001c0.135998,0.013 0.273998,0.025 0.405998,0.025c0.177002,0 0.323002,-0.021999 0.445999,-0.073c0.841,-0.344 1.663002,-0.76 2.433002,-1.153999c0.150997,-0.078001 0.259998,-0.110001 0.361,-0.110001c0.056,0 0.110001,0.011 0.167,0.032l0.224998,0.084c0.421001,0.159 0.855999,0.323 1.271,0.507c0.987,0.439001 1.838001,0.646002 2.678001,0.646002c0.224998,0 0.450001,-0.017 0.673,-0.047001c0.576,-0.077999 1.247997,-0.210001 1.854,-0.583c0.299,-0.184 0.697998,-0.490999 0.735001,-1.063999c0.001999,-0.01 0.021999,-0.044001 0.068996,-0.088001c0.073002,-0.066999 0.149002,-0.130999 0.227001,-0.195c0.077999,-0.063999 0.158001,-0.131001 0.233002,-0.202c0.469997,-0.431 0.676998,-0.976999 0.618999,-1.624001c-0.018002,-0.181 -0.057999,-0.605 -0.421001,-0.605c-0.110001,0 -0.238998,0.040001 -0.417999,0.131001c-0.075001,0.039 -0.144001,0.07 -0.207001,0.087999c0.177002,-0.108 0.348999,-0.216999 0.518002,-0.332001c0.401001,-0.272999 0.597,-0.691 0.577999,-1.241999c-0.037998,-1.200001 -1.301998,-2.336 -2.601002,-2.336c-0.153999,0 -0.306,0.018999 -0.450996,0.049999c-0.383003,0.084002 -0.859001,0.244001 -1.146,0.742001c-0.009003,0.014 -0.042004,0.035999 -0.049004,0.038l-0.219997,-0.01c-0.261002,-0.01 -0.528999,-0.021 -0.778,-0.077999l-0.073002,-0.017c-0.423,-0.098 -0.858997,-0.195 -1.305,-0.195c-0.177998,0 -0.344997,0.015999 -0.507,0.046999c-0.198997,0.037001 -0.396,0.086 -0.598,0.136l-0.146,0.035c-0.230999,-0.748999 -0.604,-1.452 -1.109001,-2.094c-1.130997,-1.438 -2.639,-2.451998 -4.606998,-3.096998c-1.427,-0.470001 -2.961,-0.705002 -4.562,-0.705002c-0.841,0 -1.723999,0.063 -2.622999,0.191002c-3.546,0.507 -6.021,2.434999 -7.358999,5.728998c-0.225,0.552 -0.376001,1.138 -0.524,1.706001c-0.071001,0.274 -0.144001,0.553999 -0.224001,0.827c-0.42,1.428999 -0.948999,2.688999 -1.618999,3.858999c-1.216001,2.123001 -2.72,3.636 -4.599,4.625c-1.502001,0.791 -3.146001,1.192 -4.884,1.192c-0.728,0 -1.489,-0.069 -2.264,-0.207999c-0.157,-0.028 -0.313,-0.062 -0.472,-0.096001c0.547,-0.025 1.067,-0.055 1.592,-0.106001c2.431,-0.245998 4.645,-0.993 6.58,-2.219c2.632999,-1.671 4.249,-3.747 4.936999,-6.344999c0.385,-1.452 0.934999,-2.898001 1.634001,-4.299c0.403999,-0.812 0.917999,-1.752001 1.657999,-2.546c1.046,-1.118999 2.394001,-1.883999 4.241001,-2.403c0.504999,-0.143002 1.007,-0.298 1.505999,-0.458c0.276001,-0.089001 0.468,-0.279999 0.587,-0.587002c0.289001,-0.75 0.361,-1.514999 0.213001,-2.27c-0.217001,-1.108997 -0.744001,-2.135998 -1.613001,-3.139c-0.685999,-0.790997 -1.538,-1.365997 -2.362,-1.922997c-0.414,-0.277 -0.802999,-0.572002 -1.157,-0.875c-0.303001,-0.260002 -0.460001,-0.600002 -0.443001,-0.958c0.026001,-0.59 0.07,-0.612003 0.18,-0.612003c0.091999,0 0.237,0.035 0.471001,0.111c0.115,0.038002 0.229,0.084 0.341999,0.134003l0.686001,0.295998c0.392,0.169003 0.782999,0.339001 1.177999,0.503002c0.855999,0.356998 1.702999,0.540001 2.514999,0.540001c0.434,0 0.868,-0.052002 1.291,-0.153004c1.52,-0.363998 2.518,-1.266998 2.966,-2.685997c0.120001,-0.384003 0.103001,-0.712002 -0.055,-0.979c-0.103998,-0.177002 -0.341999,-0.325001 -0.539999,-0.331001c-0.184,0 -0.356001,0.163002 -0.488001,0.307999c-0.073999,0.081001 -0.091999,0.187 -0.105999,0.279003c-0.006001,0.029999 -0.011,0.062 -0.018,0.09c-0.135,0.504997 -0.322001,0.834999 -0.604,1.056c0.504,-0.685001 0.73,-1.417 0.688999,-2.230003c-0.042,-0.806999 -0.646,-1.368999 -1.470999,-1.368999c-0.034,0 -0.067001,0.001003 -0.103001,0.003002c-0.313,0.019001 -0.512001,0.188 -0.545,0.466c-0.021999,0.192001 -0.021999,0.389999 -0.023001,0.579998c0,0.079002 0,0.159 -0.001999,0.237003c-0.002001,0.104 -0.001001,0.204998 0,0.308998c0,0.222 0.000999,0.431 -0.027,0.637001c-0.062,0.444 -0.326,0.743999 -0.785,0.890999c-0.032,0.012001 -0.064001,0.02 -0.098,0.022999c0.139,-0.078999 0.258999,-0.188 0.344,-0.345997c0.17,-0.315002 0.314999,-0.602001 0.393999,-0.911003c0.204,-0.820999 0.003,-1.460999 -0.580999,-1.852997c-0.302999,-0.201 -0.691,-0.276001 -1.033001,-0.324001c-0.139,-0.02 -0.275,-0.026001 -0.411999,-0.026001c-0.511002,0 -1.011002,0.119999 -1.493,0.234001l-0.245001,0.058998c-0.456999,0.105 -0.862,0.158001 -1.250999,0.159c-0.332001,0 -0.677,-0.063999 -1.011,-0.125999l-0.155001,-0.028c-2.532999,-0.456001 -4.809999,-0.676998 -6.959,-0.676998l-0.376,-0.016003z" fill="#E65270"/>
  <path id="svg_2" d="m34.73,-20.451c0,0 -3.734999,-4.455999 -10.077999,-1.903c-5.810001,2.341 -3.692001,8.784 -3.692001,8.784s1.030001,-3.996 4.036001,-5.51c4.351999,-2.193001 9.733999,-1.371 9.733999,-1.371z" fill="#430A1D" opacity="0.2"/>
  <path id="svg_3" d="m16.327,-22.358999c0.809,-0.822001 0.823999,-1.663 1.078001,-2.688002c0.479,-1.927999 1.067999,-3.601999 2.296,-5.188c1.181,-1.524 2.594,-2.602001 4.419001,-3.302998c1.580999,-0.606003 3.613998,-0.427002 3.310999,-2.781002l-0.529999,-1.981998c-4.040001,0 -7.825001,1.843998 -9.367001,5.854c-1.352001,3.517998 0.240999,7.768999 -3.857,13.716999c0.328,-0.402 2.231,-3.201 2.65,-3.629z" fill="#430A1D" opacity="0.2"/>
  <g id="svg_4" opacity="0.2">
   <path id="svg_5" d="m14.727,-20.611c0.061999,-0.25 0.118,-0.504 0.175,-0.757c-0.151,0.184999 -0.229,0.421 -0.175,0.757z" fill="#2B2B2B"/>
  </g>
  <path id="svg_6" d="m-32.348999,-35.983002c-15.241001,1.506001 -17.035,16.677002 -17.035,16.677002s-0.828003,7.032 1.104,13.93c1.240997,-12.550001 11.308998,-21.239 11.308998,-21.239s2.212002,-7.150999 4.622002,-9.368002z" fill="url(#SVGID_20_)"/>
  <path id="svg_7" d="m-36.150002,-30.205c0,0 -3.195999,-0.304001 -7.460999,4.872999c4.112,-7.460999 9.441002,-7.612999 9.441002,-7.612999l-1.980003,2.74z" fill="#2B2B2B" opacity="0.2"/>
  <path id="svg_8" d="m-27.912001,-38.917c-0.799,14.030001 7.438,7.52 11.690001,14.959999c1.195,6.51 4.782001,10.628 4.782001,10.628s-25.506,4.782001 -25.907001,-13.816999c0.888,-4.027 4.792,-7.921001 7.236,-10.028c-0.478001,1.077999 -6.567001,17.833 13.711,16.466999c-6.999001,0.596001 -17.105001,-6.716 -12.288,-17.669998c0.483,-0.352001 0.775999,-0.540001 0.775999,-0.540001z" fill="url(#SVGID_21_)"/>
  <path id="svg_9" d="m-21.017,-18.684c-5.271999,-1.982 -14.225,-1.973 -11.677,-15.426001c-0.408001,-0.306 -2.445999,2.854 -1.937,2.547001c-2.343998,12.028 8.184,11.333 13.614,12.879z" fill="#FFFFFF" opacity="0.2"/>
  <path id="svg_10" d="m-14.341,-13.865c5.127,2.028 0.964,-3.722 0.236,-4.642c-1.683001,-2.128 -5.941,-1.436001 -8.210001,-2.146c-1.305,-0.408001 -6.535999,-1.174999 -8.268999,-6.128c-0.77,-2.194 -1.060001,-5.781 0.580999,-10.146002c-0.407,-0.307999 -3.103998,2.646004 -2.594,2.342003c-4.327999,19.329999 16.086,12.391998 18.256001,20.719999z" fill="#8B4FBA" opacity="0.6"/>
  <path id="svg_11" d="m36.631001,-5.972c0.139,0.384 0.377998,0.875 0.679001,1.165c0.07,-0.033 0.145,-0.037 0.202,-0.073c0.5,0.324 1.289997,0.281 1.917999,0.281c0.375999,0 0.924,0.104 1.286999,-0.037c0.528,-0.205 0.468002,-0.761 0.688999,-1.182c0.414001,-0.786 1.690002,-0.796 1.695004,-1.907c0.003998,-0.523 0.134998,-1.232 0.000999,-1.744c-0.100002,-0.38 -0.525002,-0.264 -0.891003,-0.264c-1.108997,0 -2.215,-0.031 -3.326,-0.031l-1.535999,1.145c-0.41,-0.131 -0.730999,0.729001 -0.786999,1.021c-0.091999,0.482 -0.104,1.149 0.069,1.626z" fill="#F9E0E7"/>
  <path id="svg_12" d="m41.756001,-7.494c0.188,0.077 0.465,0.378 0.581001,0.555c0.084,0.127 0.059998,0.208 0.239998,0.203c0.469002,-0.013 0.473,-0.646 0.449001,-0.973c-0.028,-0.418 -0.197002,-0.802 -0.257999,-1.213c-0.152,0.038 -0.236,0.229 -0.407001,0.276999c-0.136002,0.040001 -0.331001,0.021001 -0.473,0.015c-0.208,-0.009 -0.496002,-0.149 -0.684002,-0.069l0.552002,1.205z" fill="#FFFFFF"/>
  <path id="svg_13" d="m-18.99,13.068c0.07,0.081 0.087999,0.105 0.110001,0.128c2.035,1.9 3.113999,4.297999 3.693999,6.978999c0.381,1.755001 -0.105,3.303001 -0.895,4.816c-0.014,0.025002 -0.039001,0.050001 -0.066,0.084002c-0.158001,-0.494001 -0.302,-0.979 -0.470001,-1.456001c-0.413,-1.175999 -0.913,-2.313999 -1.706999,-3.288c-0.317001,-0.387999 -13.613001,-7.752999 -12.244001,-24.063999c0.009001,-0.101 0.026001,-0.197 0.040001,-0.31c0.246,0.229 0.461,0.466 0.708,0.661c0.885,0.692 1.907,1.133 2.973,1.431c1.951,0.544 3.915001,1.044 5.881001,1.525c2.237,0.548 4.487,1.056 6.645,1.882c1.22,0.466 2.354,1.08 3.437,1.82c1.613999,1.104 3.007,2.426 4.207,3.956c0.699,0.891 1.025,1.571001 1.34,2.618001c0.199,-0.539001 0.095,-2.041 -0.205,-2.999001c-0.31,-0.99 -0.837,-1.854 -1.524,-2.647c0.165,0.053 0.345,0.08 0.492,0.164c1.902,1.084 3.587,2.419 4.831,4.249c0.834,1.226001 1.342,2.568001 1.413,4.062c0.001,0.021 0.01,0.042 0.017,0.075c0.396,-1.832 0.339,-4.952 -1.727,-7.17c0.73,0.258 1.39,0.517 2.066,0.718c0.559,0.166 0.928,0.493 1.237,0.984c1.356,2.146 2.48,4.396 3.088,6.877c0.47,1.916 0.587,3.84 0.06,5.764999c-0.598,2.176001 -1.912,3.851 -3.7,5.182001c-1.242,0.924999 -2.612,1.611 -4.05,2.173c-0.087,0.033998 -0.174,0.064999 -0.259,0.102999c-0.014,0.005001 -0.021,0.021 -0.076,0.080999c0.498,-0.136999 0.945,-0.252998 1.386,-0.383999c2.06,-0.612 4.034,-1.41 5.782,-2.688c1.56,-1.140001 2.754,-2.562 3.351,-4.432001c0.533,-1.674 0.487,-3.365999 0.104,-5.058c-0.56,-2.467 -1.709,-4.665 -3.109,-6.745999c-0.043,-0.065001 -0.085,-0.129001 -0.126,-0.193c-0.006,-0.01 -0.005,-0.026 -0.013,-0.062c0.058,0.021 0.104,0.036 0.146,0.059c2.931,1.499 5.537,3.415999 7.613,5.992c2.016,2.5 3.483,5.284 4.18,8.438c0.877,3.98 -0.085,7.514 -2.663,10.630999c-1.629001,1.973003 -3.643001,3.465 -5.873,4.681004c-2.877,1.565998 -5.938,2.589996 -9.177,3.060997c-1.842,0.269001 -3.686,0.32 -5.527,-0.034c-1.012,-0.191998 -1.668,-0.458 -2.79,-1.105999c0.142,0.121002 0.277,0.249001 0.426001,0.358002c1.007,0.764999 2.168,1.16 3.387,1.406998c2.016,0.408001 4.049,0.403 6.082,0.166c3.148,-0.368 6.149,-1.239998 8.991,-2.646c0.278,-0.139999 0.552999,-0.283001 0.86,-0.440998c0,0.257999 -0.015,0.482998 0.004,0.705997c0.026,0.344002 0.199,0.541 0.47,0.573002c0.258,0.031998 0.41,-0.065002 0.46,-0.319c0.041,-0.215 0.052,-0.436001 0.083,-0.652c0.07,-0.492001 0.297999,-0.909 0.636,-1.271c0.033,-0.036999 0.074,-0.069 0.115,-0.097c0.019,-0.014999 0.046,-0.014 0.118,-0.028c0,0.176998 0.001,0.34 0,0.501999c-0.004999,0.329002 -0.018,0.659 -0.011,0.988003c0.003,0.080997 0.06,0.210999 0.116,0.226997c0.077,0.021 0.217,-0.017998 0.264999,-0.078999c0.129001,-0.170002 0.268001,-0.354 0.327001,-0.556c0.129,-0.428001 0.187,-0.875999 0.321,-1.301003c0.087999,-0.274998 0.228,-0.546997 0.403,-0.774998c0.191999,-0.25 0.386,-0.195 0.459,0.111c0.068,0.285999 0.093,0.583 0.136001,0.875c0.014999,0.100998 0.018,0.204998 0.049,0.299c0.025,0.081001 0.084,0.147999 0.128,0.223c0.066,-0.061001 0.162999,-0.105999 0.191999,-0.181999c0.067,-0.170002 0.133,-0.353001 0.141,-0.532001c0.021,-0.396 -0.016,-0.794998 0.013,-1.188999c0.014999,-0.209999 0.085,-0.434002 0.188,-0.616001c0.114,-0.202999 0.297,-0.178997 0.360001,0.048c0.091,0.324001 0.136,0.659 0.202,0.990002c0.045,0.223999 0.092,0.446999 0.147,0.721001c0.264999,-0.226002 0.329,-0.477001 0.355,-0.720001c0.068,-0.646999 0.101,-1.297001 0.158,-1.945c0.044,-0.486 0.211,-0.913002 0.498,-1.327999c0.520999,-0.755001 0.981999,-1.554001 1.447999,-2.346001c0.240002,-0.406 0.462002,-0.443001 0.686001,-0.025002c0.254,0.475 0.443001,0.982 0.658001,1.479c0.094,0.216999 0.172998,0.438 0.271999,0.652c0.046,0.104 0.124001,0.192001 0.195,0.299999c0.254999,-0.184998 0.316,-0.426998 0.267,-0.667c-0.073,-0.361 -0.205999,-0.712 -0.299999,-1.069c-0.101002,-0.389999 -0.209002,-0.778999 -0.27,-1.176998c-0.023001,-0.160002 0.049,-0.352001 0.122,-0.507c0.103001,-0.225 0.267,-0.252001 0.442999,-0.076c0.179001,0.177999 0.318001,0.394999 0.492001,0.576c0.099001,0.103998 0.235001,0.167 0.354,0.248999c0.066999,-0.146 0.203001,-0.298 0.191,-0.438c-0.025,-0.296999 -0.096001,-0.6 -0.205,-0.878c-0.222,-0.564999 -0.521,-1.102999 -0.712,-1.675999c-0.138,-0.416 -0.164,-0.871 -0.209,-1.312c-0.012001,-0.108 0.077999,-0.299 0.163,-0.33c0.088999,-0.031 0.264999,0.056999 0.344,0.143999c0.362999,0.398001 0.704,0.819 1.059999,1.228001c0.087,0.101999 0.203001,0.174 0.305,0.261999c0.035,-0.018 0.068001,-0.032 0.103001,-0.050999c-0.034,-0.231001 -0.025002,-0.481001 -0.109001,-0.696001c-0.143,-0.357 -0.32,-0.708 -0.524,-1.032999c-0.323,-0.517 -0.691999,-1.002001 -1.022999,-1.512001c-0.612001,-0.942999 -1.017,-1.973 -1.271,-3.069c-0.183001,-0.788 -0.443001,-1.559 -0.671001,-2.334c-0.026999,-0.096001 -0.060999,-0.188999 -0.064999,-0.296c0.198999,0.316999 0.393,0.640999 0.598999,0.956999c0.431,0.664001 0.927999,1.274 1.596001,1.714001c0.336,0.219999 0.697001,0.417999 1.073,0.556c1.933001,0.711 3.886999,1.372 5.73,2.299c0.524,0.267 1.025,0.588001 1.502001,0.936001c0.602999,0.438 0.826,1.049 0.646,1.789c-0.126001,0.514 -0.252001,1.027 -0.383001,1.562c-0.311998,-0.497999 -0.587,-0.978001 -0.901999,-1.427999s-0.704,-0.832001 -1.283001,-1.089001c0.052,0.099001 0.066999,0.142 0.093,0.177c0.812,1.118999 1.280001,2.391001 1.642,3.708c0.037001,0.136 -0.005001,0.299999 -0.029001,0.447001c-0.165998,0.959999 -0.085999,1.921999 -0.042999,2.885c0.01,0.190998 0.01,0.389999 -0.017,0.579998c-0.011,0.088001 -0.083,0.198002 -0.157999,0.231003c-0.051001,0.022999 -0.184,-0.047001 -0.229,-0.108002c-0.186001,-0.262001 -0.394001,-0.519001 -0.519001,-0.807999c-0.503,-1.169001 -0.984999,-2.348001 -1.465,-3.524002c-0.598,-1.469 -1.271999,-2.894999 -2.299,-4.120998c-0.463999,-0.555 -0.993,-1.038 -1.642,-1.375c-0.123999,-0.063002 -0.255999,-0.114 -0.394999,-0.158001c1.004999,1.039 1.230999,2.354 1.275999,3.698999c0.059,1.722 0.025,3.448 0.042,5.171999c0.018,1.864002 0.172001,3.712002 0.728001,5.508003c0.021,0.070999 -0.014,0.174999 -0.052999,0.245998c-0.157001,0.306 -0.356001,0.591999 -0.486,0.908001c-0.273001,0.662998 -0.501001,1.342999 -0.768002,2.009998c-0.155998,0.392002 -0.209,0.421001 -0.629,0.391003c-0.452,-0.032001 -0.722,0.226997 -0.962,0.547997c-0.182999,0.243 -0.257999,0.237003 -0.383999,-0.047997c-0.137001,-0.310001 -0.245001,-0.629002 -0.393002,-0.934002c-0.050999,-0.104 -0.181,-0.172001 -0.275,-0.256001c-0.071999,0.105999 -0.191999,0.209999 -0.204,0.323002c-0.039,0.368999 -0.028999,0.740997 -0.054998,1.111c-0.012001,0.183998 -0.037001,0.369999 -0.099001,0.542c-0.029999,0.080997 -0.153999,0.168999 -0.243,0.175999c-0.063999,0.005001 -0.174999,-0.104 -0.202,-0.186001c-0.091,-0.263 -0.145,-0.536999 -0.228001,-0.801998c-0.066999,-0.213001 -0.161999,-0.236 -0.289,-0.062c-0.924999,1.259998 -2.158999,2.153 -3.478,2.946999c-0.389,0.234001 -0.772,0.479 -1.159,0.715c-0.026999,-0.008999 -0.054,-0.019001 -0.079,-0.026001c0.049,-0.428997 0.099999,-0.856998 0.149,-1.285c-0.035001,-0.018997 -0.070001,-0.035 -0.104,-0.052998c-0.122,0.104 -0.262,0.189999 -0.364,0.312c-0.257,0.302998 -0.489,0.625 -0.749,0.926998c-0.514,0.604 -1.162001,1.035999 -1.785001,1.179001c0.197001,-0.674999 0.385,-1.313999 0.571,-1.955002c-0.028999,-0.014999 -0.061,-0.026997 -0.089999,-0.039997c-0.065001,0.079998 -0.14,0.153999 -0.193001,0.240997c-0.151,0.245003 -0.299999,0.489002 -0.438,0.741001c-0.594,1.075001 -1.51,1.695 -2.712,1.868c-0.818,0.118 -1.645,0.195999 -2.469,0.251999c-0.605,0.042 -1.184,0.131001 -1.738,0.396c-0.388,0.175003 -0.804,0.295002 -1.212,0.431c-0.069,0.024002 -0.159,-0.004997 -0.239,-0.009998c0.006,-0.087002 -0.012,-0.188 0.023,-0.259998c0.192,-0.376003 0.401,-0.743 0.594,-1.119003c0.071,-0.134998 0.117,-0.283997 0.173,-0.426998c-0.019,-0.021 -0.037,-0.040001 -0.055,-0.061001c-0.123,0.041 -0.251,0.069 -0.366,0.125c-0.532,0.257999 -1.072,0.500999 -1.586,0.791c-0.524,0.296001 -1.1,0.32 -1.668,0.368c-1.775,0.149002 -3.528,0.029999 -5.243,-0.488998c-1.043,-0.314003 -2.007,-0.788002 -2.855,-1.521c0.106999,0.010998 0.217,0.010998 0.321,0.029999c1.036,0.213001 2.072,0.412998 3.138,0.377998c0.725,-0.022999 1.432,-0.139 2.07,-0.507c0.101,-0.057999 0.166,-0.18 0.248,-0.271c-0.143,-0.049999 -0.293,-0.146 -0.43,-0.127998c-0.331,0.039001 -0.655,0.161999 -0.988,0.188999c-1.062,0.095001 -2.084,-0.149998 -3.095,-0.429001c-2.448,-0.671997 -4.665,-1.814999 -6.724,-3.285999c-0.502,-0.356998 -1.023001,-0.688 -1.544001,-1.02c-1.015999,-0.646 -1.838999,-1.480999 -2.489,-2.492001c-0.076,-0.119999 -0.146999,-0.248997 -0.195,-0.382c-0.132999,-0.369999 -0.035,-0.678997 0.315001,-0.862999c0.249001,-0.132 0.527,-0.225998 0.802999,-0.292999c3.659,-0.891998 6.384001,-3.908001 6.806001,-7.639c0.158999,-1.399 0.354,-2.802 0.283999,-4.221001c-0.161,-3.257 -1.328,-6.094999 -3.502,-8.518999c-1.293,-1.442 -2.822,-2.589001 -4.495,-3.554001c-0.033001,-0.023 -0.069,-0.037999 -0.167,-0.089z" fill="url(#SVGID_22_)"/>
  <path id="svg_14" d="m27.896999,34.688999c-1.553999,-12.137999 -6.941,-9.390999 -10.465,-16.167c-0.192999,0.256001 -0.636999,-1.816 0.251001,2.031c0.889,3.851 3.435999,2.112001 5.847,6.516001c3.052999,5.567001 2.442999,6.065998 4.366999,7.619999z" fill="#8B4FBA" opacity="0.2"/>
  <path id="svg_15" d="m11.804,34.460999c-0.578,-3.473999 -5.49,-3.316999 -9.693,-1.842999c-4.568,1.602001 -14.057,2.116001 -14.821,0.205002c-0.381,-0.438004 -1.146,1.362999 -1.146,1.362999s7.207,7.862999 19.272,-0.436001c-0.491,0.764 4.336,3 4.336,3s1.452001,0.441002 2.052,-2.289001z" fill="#FFFFFF" opacity="0.3"/>
  <path id="svg_16" d="m-13.195,1.104c0.261999,-0.65 2.396,-0.212 2.596,0.803c-3.148,3.566 5.14,10.119 -2.504,18.672c5.002999,-13.195001 -5.647,-13.732 -0.092,-19.475001z" fill="#8B4FBA" opacity="0.2"/>
  <path id="svg_17" d="m-13.195,1.104c0.261999,-0.65 0.215,-0.464 0.415,0.551c-3.148001,3.567 5.237,8.768 -0.323,18.924001c5.002999,-13.195001 -5.647,-13.732 -0.092,-19.475001z" fill="#8B4FBA" opacity="0.6"/>
  <path id="svg_18" d="m-1.723,3.708c15.128,15.919001 -3.997,13.253 -10.23,24.058001c0.011,0.185999 0.024,0.365999 0.024,0.556999c0,1.502001 -0.364,2.916 -0.998,4.17c5.834,-8.653 20.624,-1.023001 17.751,-18.712c-0.259,-0.91 -2.317,-9.874 -6.547,-10.073z" fill="url(#SVGID_23_)"/>
  <path id="svg_19" d="m-1.723,3.708c-6.229,-3.057 -11.674,-3.146 -11.416,-2.239c12.375,8.397 2.385,17.049999 0.056,25.201c0.159,0.657999 1.154,0.903 1.154,1.65c0,0.08 -0.009,0.156 -0.011001,0.235001c0.18,-0.809 0.606001,-1.09 1.014001,-1.5c5.752,-5.802 24.035999,-7.741001 9.203,-23.347z" fill="url(#SVGID_24_)"/>
  <path id="svg_20" d="m-3.674,3.945c9.58,14.308 -8.304,17.026 -8.174,21.562c-1.425,-9.33 15.717,-13.324 -0.389001,-24.491c-0.257999,-0.906 2.334001,-0.128 8.563,2.929z" fill="#E65271"/>
  <path id="svg_21" d="m23.094,28.799999c0.761,-1.271 -0.084,-2.771 -0.969999,-4.175999c-0.818001,-1.298 -2.793001,-0.873001 -4.133001,-4.002001l0.115002,2.438c1.484999,2.587 -1.027,6.148001 -1.726002,8.555c-1.19,4.1 -2.483999,7.883001 -0.907,12.043001c0.107,0.278999 0.198,0.584999 0.306001,0.871998c0.786,-0.580997 1.38,-1.16 2.057,-2.042999c0.447001,-0.585999 0.291,1.512001 0.879,1.070999c0.431999,-0.319 -0.021,-1.802998 0.391001,-2.146c0.462,-0.389999 0.74,1.868 1.074999,1.368c0.781,-1.174 1.229,-0.428997 1.562,-0.780998c0.301001,-0.319 1.004999,-2.778 1.289,-3.111c0.278,-0.323002 0.543001,-0.656002 0.805,-0.991001c-0.157999,-1.790001 -0.506001,-3.801998 -1.082001,-5.417c-0.542999,-1.525999 -0.568998,-2.161999 0.339001,-3.68z" fill="url(#SVGID_25_)"/>
  <path id="svg_22" d="m1.8,47.490002c0.046,-0.017002 0.086,-0.024002 0.11,-0.023003c0.419,0.007 -1.129,1.954002 -0.684,1.954002c0.751,0 1.812,-0.776001 2.547,-0.833c1.552,-0.118999 3.161,-0.084 4.536,-0.713001c1.318,-0.604 1.904,-2.479 2.199,-2.557999c0.297,-0.082001 -0.717,2.167 -0.426001,2.066998c0.493,-0.166 0.887,-0.41 1.212,-0.68c1.3,-1.861 1.722,-11.084 -0.184999,-10.845997c-2.004001,0.25 3.161,-0.708 3.182,-0.631001c1.726999,6.521 -2.121,10.530998 -1.947001,10.305c0.227,-0.300003 0.411,-0.533001 0.606,-0.608002c0.411,-0.158001 -0.255,1.571999 0.12,1.342999c1.193,-0.729 2.039001,-1.243 2.734,-1.760998c0.021,-0.029999 0.027,-0.102001 0.061,-0.088001c0.512001,0.213001 3.672001,0.956001 1.267,-10.396c3.652,7.390999 0.792999,10.291 1.073,9.987999c1.297001,-1.399998 1.562,-4.817997 1.729,-6.844997c0.157999,-1.901001 -1.038,-6.235001 -2.587999,-7.668001c-1.091002,-1.007999 -1.069,0.24 -1.479001,1.204c-0.672999,1.583 -1.907,2.859001 -3.026999,4.162998c-0.834001,0.970001 -1.846,1.679001 -2.763,2.547001c-0.999,0.945999 -1.525,2.268002 -2.418,3.306c-0.798,0.928001 -1.78,1.667 -2.539,2.635002c-0.851,1.084 -1.421,2.323997 -2.361,3.321999c-0.299,0.32 -0.633,0.560001 -0.959,0.816002z" fill="#E65271"/>
  <path id="svg_23" d="m8.803,48.526001c2.231999,0.007 3.632999,-1.062 5.48,-2.084c1.531,-0.851002 3.412,-0.859001 4.705001,-2.031002c1.716999,-1.558998 2.459999,-3.104 2.782999,-5.385998c0.368999,-2.598003 0.413,-5.91 -0.077999,-8.499002c-0.252001,-1.327999 -1.196001,-4.049999 -2.191,-5.021l-1.194,0.76c-2.355,6.081001 -9.453001,8.576 -12.139,14.553001c-0.792,1.758999 -1.09,4.044998 -1.109,5.966999c-0.021,2.012001 2.117,1.736 3.743001,1.741001z" fill="url(#SVGID_26_)"/>
  <path id="svg_24" d="m-13.406,33.330002c-1.298,2.016998 -3.353001,3.5 -5.767,4.038998c-0.614,0.137001 -1.713999,0.519001 -0.625,1.830002c1.165001,1.817997 2.839001,2.515999 3.74,3.183998c3.623,2.690002 2.125,2.965 4.239,3.209c0.826,0.096001 0.608,0.167999 1.027,0s-0.322001,0.118 -0.587,0.292999c-2.358001,1.561001 -2.188001,-1.552998 -1.174001,-0.879997c3.018001,2.334 9.970001,3.972 11.919,3.638c0.284,-0.048 2.243,-1.18 2.543,-1.175003c0.419,0.007 -1.129,1.954002 -0.684,1.954002c0.751,0 1.812,-0.776001 2.547,-0.833c1.521,-0.117001 6.146,-2.237999 6.113,-7.822002c-0.01,-1.705997 0.094999,-2.901997 -0.135,-4.014999c-1.686,-8.167999 -18.759,3.295002 -23.156,-3.421997z" fill="#F6E8A0"/>
  <path id="svg_25" d="m7.03,38.365002c-0.791,0.987999 -5.933,2.768997 -5.933,2.768997s-8.54,2.943001 -16.415,-5.438c4.025,3.195 11.098,1.855 16.213,1.264999c0.676,-0.078999 -1.461,0.603001 -0.901,0.810001c1.9,0.702999 3.659,-1.266998 5.553,-0.887001c0.883,0.177002 1.414,0.656002 1.483,1.481003z" fill="#FFFFFF"/>
  <path id="svg_26" d="m0.48,39.748001c-3.136,0.826 -6.271,-0.382999 -6.875,-0.420002c0.284,0.427002 0.747,1.412003 3.07,1.752003c0.534,0.078999 1.604,-0.007 2.165,-0.006001c1.004,0.001999 1.627,-0.240002 2.513,-0.667c0.565,-0.272003 1.931,-0.562 2.365,-0.494003c0,0 4.806,-0.362 3.214,-1.991997c-1.59,-1.629002 -3.912,2.100998 -9.006,0.907997c0.001,0.166 1.165,0.997002 2.554,0.919003z" fill="#F6E8A0"/>
  <g id="svg_27">
   <path id="svg_28" d="m-4.274,46.507c-1.982,1.312 -5.447,0.187 -5.897,0.193001c-0.009999,0.045998 0.017,0.097 0.098001,0.147999c3.019,2.334 7.492,2.125999 9.441,1.792c0.015,-0.001999 0.036,-0.008999 0.058,-0.016998c0.009,-0.003002 0.023,-0.007999 0.035,-0.013c0.422,-0.161999 1.801,-0.938999 2.303,-1.110001c2.938,-1.665001 7.58,-5.181 7.989,-10.750999c-1.669001,0.742001 -2.869,1.465 -3.791,2.168999c-0.31,0.237 -7.332,7.576 -25.917,-1.242001c0,0 -0.517,0.284 -0.222,0.948002c4.197001,6.743999 11.86,8.681 24.063,2.293999c-1.73,2.062 -2.569,3.931 -8.16,5.589001z" fill="#F8D285"/>
  </g>
  <path id="svg_29" d="m7.606,8.604c6.884,7.039 9.689,12.298 6.357,17.961c-5.396,9.177999 -22.014,-0.395 -29.241,8.865c0.766,-0.875 2.394,-2.608002 3.969,-3.460001c5.357,-3.5 15.44,-2.373999 18.653,-5.08c4.133,-3.48 5.189,-10.497 0.262,-18.285999z" fill="url(#SVGID_27_)"/>
  <path id="svg_30" d="m-14.819,23.316c-0.007999,-0.472 1.072001,-3.195 0.903,-3.822001c-1.45,-5.353 -7.733999,-7.978999 -7.733999,-7.978999s-7.037001,-2.832001 -8.155001,-15.776c-1.284,-0.924 -1.105999,1.043 -1.066,1.917c0.799,16.976 14.922,15.078 16.052,25.66z" fill="url(#SVGID_28_)"/>
  <path id="svg_31" d="m9.123,-4.735c-0.116,0.053 -0.227,0.123 -0.348001,0.158c-0.617,0.172 -1.237999,0.33 -1.855999,0.506c-0.195,0.055 -0.381,0.144 -0.572,0.217c0.001,0.042 0.003,0.083 0.004,0.124c0.222,0.04 0.441,0.11 0.663,0.113c0.887,0.01 1.775,-0.002 2.663,-0.004c1.253,-0.003 2.512,0.003 3.721,0.369c0.59,0.18 1.165,0.45 1.706,0.751c5.712999,3.18 9.75,7.834 12.179001,13.895c0.497,1.239 0.877998,2.52 1.171999,3.82c0.018,0.072001 0.026001,0.147 0.048,0.272c-0.094999,-0.058 -0.156,-0.086 -0.212999,-0.123c-3.496,-2.395 -7.314001,-4.019 -11.481001,-4.808c-1.489,-0.281 -2.994,-0.422 -4.509,-0.466001c-0.114,-0.002999 -0.258,-0.046 -0.333,-0.124c-2.266,-2.311 -4.942,-4.019 -7.83,-5.439c-2.303,-1.133 -4.736,-1.819 -7.237,-2.305c-3.207,-0.623 -6.422,-1.215 -9.63,-1.832c-3.939001,-0.757 -7.858,-1.598 -11.666,-2.886c-2.415001,-0.816 -4.756001,-1.797 -6.896,-3.202c-1.611,-1.06 -3.045002,-2.312 -4.059002,-3.979001c-0.355999,-0.587999 -0.608997,-1.238999 -0.914997,-1.858c-0.056,-0.111 -0.116001,-0.227 -0.202,-0.311999c-2.124001,-2.077001 -2.960003,-4.604 -2.634003,-7.536001c0.242001,-2.168999 1.018002,-4.153 2.127003,-6.019999c0.130997,-0.219 0.241997,-0.447001 0.343998,-0.640001c0.053001,0.473001 0.095001,1.003 0.168999,1.528c0.469002,3.341002 2.190002,5.829 5.117002,7.491001c1.702999,0.969999 3.536999,1.611 5.438,2.030999c2.084,0.46 4.185999,0.847 6.286999,1.228001c2.551001,0.460999 5.116001,0.846 7.596001,1.628c0.482,0.150999 0.959001,0.325999 1.432,0.506c0.61,0.229 1.18,0.524 1.711,0.918c1.757999,1.295 3.684,2.287 5.715,3.081c0.055,0.021 0.109,0.045 0.163,0.066c0.003,0.008 0.004,0.019 0.012,0.042c-0.033,0.003 -0.062,0.007 -0.092,0.007c-2.272,-0.002 -4.547,-0.014 -6.819,-0.002c-2.032,0.013 -4.058,-0.05 -6.073999,-0.315c-2.791,-0.37 -5.492001,-1.093 -8.122,-2.094c-3.103001,-1.184 -6.040001,-2.699 -8.887001,-4.399c-0.076,-0.046 -0.154999,-0.09 -0.257,-0.108c0.053001,0.043 0.103001,0.091 0.154999,0.131c3.117002,2.363 6.436001,4.381001 10.097002,5.796c2.549,0.983 5.181,1.629 7.901,1.917c2.396,0.253 4.792999,0.229 7.191,0.055c2.074,-0.151 4.147,-0.302 6.222,-0.444c0.18,-0.015 0.373,0.011 0.547,0.062c2.051,0.624 4.15,0.991 6.269,1.292c1.251,0.179 2.486,0.479 3.726,0.726c0.085,0.017 0.165,0.061 0.245,0.094c0.004,0.023 0.008,0.047 0.012,0.072z" fill="url(#SVGID_29_)"/>
  <path id="svg_32" d="m-29.061001,-11.728c8.124001,9.705 29.202001,4.618 38.184001,6.992c-5.687,-3.267 -10.313,-2.702 -10.313,-2.702s-19.409001,2.143 -27.871001,-4.289999z" fill="#FFFFFF" opacity="0.2"/>
  <path id="svg_33" d="m33.056,25.101c-0.275002,-0.046999 -0.478001,-0.059999 -0.664001,-0.119999c-0.731998,-0.229 -1.494999,-0.399 -2.180998,-0.729c-0.653,-0.315001 -1.258001,-0.762001 -1.824001,-1.222c-1.096998,-0.892 -2.143999,-1.841002 -3.226,-2.744001c-0.886,-0.738998 -1.827,-1.4 -2.946999,-1.743c-0.361,-0.109999 -0.736,-0.172998 -1.114,-0.234999c1.459999,0.734999 2.277,2.045 3.124001,3.389c-0.072001,-0.013 -0.098001,-0.01 -0.117001,-0.019001c-2.226,-1.088999 -4.407,-2.251999 -6.388,-3.758999c-0.528999,-0.403 -0.945999,-0.861 -1.243999,-1.486c-0.476001,-0.994 -1.079,-1.929001 -1.627001,-2.887001c-0.023999,-0.042999 -0.049999,-0.084999 -0.117,-0.2c0.48,0.101 0.9,0.168 1.311999,0.273001c1.744001,0.445999 3.366001,1.200999 4.958,2.021c2.487001,1.287 4.853001,2.775001 7.151001,4.371999c0.069,0.048 0.139999,0.094002 0.232,0.122002c-0.021,-0.029001 -0.038,-0.061001 -0.063002,-0.085001c-2.724998,-2.716999 -5.780998,-4.955 -9.352999,-6.438c-1.545,-0.644 -3.146001,-1.073 -4.813001,-1.246c-0.061999,-0.009 -0.143,-0.028 -0.177999,-0.071c-0.371,-0.448999 -0.733,-0.903 -1.143001,-1.41c1.016001,0.218 1.973001,0.409 2.924001,0.63c2.659999,0.618 5.267999,1.403 7.759,2.535c1.84,0.836 3.593,1.819 5.07,3.217001c1.948,1.845999 3.382,4.029999 4.218,6.587999c0.123001,0.375 0.160999,0.782999 0.250999,1.247z" fill="#E65271"/>
  <path id="svg_34" d="m-12.963,0.399c0.789001,0.265 1.688001,0.593 2.647,0.961c11.306,3.526 15.042,6.465 15.042,6.465l11.357,8.408c0,0 1.855999,-1.421 4.257999,0.437c-1.636999,-1.965 -6.66,-3.494 -6.66,-3.494s-0.231999,-1.546 -1.87,-2.747c4.47,1.519 11.979001,1.084001 17.189,5.775001c-3.940001,-11.144001 -13.725,-2.649 -23.182,-9.58c-1.092,-0.655 -15.516,-4.342 -8.348,-4.089c7.167,0.252 11.89,-4.639 17.877,-3.036c-5.62,-2.038 -10.586,1.228 -18.414,1.777c1.218,-0.244 2.887,-0.915 3.598,-1.832c-2.838,2.026 -8.392,2.119 -9.711,1.656c-1.198999,-0.152 -2.458,-0.38 -3.783,-0.701z" fill="#8B4FBA" opacity="0.6"/>
  <path id="svg_35" d="m14.155,-3.038c-8.237,-3.272 -37.349999,6.206 -50.420999,-8.498c0,0 -0.979,0.438001 4.225998,6.273c20.468001,9.784 35.701001,0.532 46.195001,2.225z" fill="#2B2B2B" opacity="0.2"/>
  <path id="svg_36" d="m26.891001,9.996c2.436998,1.370999 0.456999,-1.98 -1.979,-3.959c-9.594001,-6.7 -13.933001,0.924 -23.448001,-2.745c14.559001,8.025 15.984999,-1.976 25.427001,6.704z" fill="url(#SVGID_30_)" opacity="0.7"/>
  <path id="svg_37" d="m26.146,8.094c2.438,1.371 1.202,-0.078 -1.233999,-2.058c-9.594001,-6.7 -13.933001,0.924 -23.448001,-2.745c9.367,5.212 15.241,-3.876 24.682,4.803z" fill="#8B4FBA" opacity="0.2"/>
  <g id="svg_38">
   <path id="svg_39" d="m-21.219999,11.687c-4.438002,-4.062 -0.958,-12.957 -0.958,-12.957l-3.159,-0.677c0,0 -3.188,8.599 4.117001,13.634z" fill="url(#SVGID_31_)" opacity="0.7"/>
   <path id="svg_40" d="m-13.56,18.500999c3.345,-5.952999 -5.526,-14.141999 -0.762,-17.040999c-0.075999,-0.391 -2.723999,-1.719 -2.6,-1.335c-5.879,9.021 3.817001,11.172 2.544001,16.812c-6.799,-9.275 -6.872,-11.111 -3.569,-16.983c-0.041,-0.032 -0.403999,-0.506 -0.764999,-0.236c-5.165001,3.873 -6.618999,8.224 5.151999,18.782999z" fill="url(#SVGID_32_)" opacity="0.7"/>
  </g>
  <path id="svg_41" d="m-2.629,6.403c0.212,-2.788 2.159,1.741 2.454,4.867001c0.254,11.698 -11.607,8.868999 -12.149,18.333c-1.153999,-10.766001 11.681,-10.530001 9.695,-23.200001z" fill="#8B4FBA" opacity="0.2"/>
  <path id="svg_42" d="m8.871,11.043c0.21,-2.788 5.808,4.388 6.104,7.513c-1.878,20.070999 -22.536,7.864 -27.937,15.257999c4.460999,-8.098999 33.336,3.170002 21.833,-22.770999z" fill="#FFFFFF" opacity="0.3"/>
  <path id="svg_43" d="m46.668999,-28.038c-0.302998,-0.266001 -0.551998,-0.507999 -0.826,-0.718c-0.219997,-0.167 -0.460999,-0.314999 -0.709,-0.438c-0.604,-0.292 -1.211998,-0.33 -1.822998,-0.006001c-0.951,0.504002 -1.971001,0.542 -3.012001,0.428001c-0.303001,-0.032001 -0.500999,-0.176001 -0.639999,-0.459002c-1.042999,-2.146 -2.781002,-3.524 -4.958,-4.395998c-0.249001,-0.100002 -0.366001,-0.216 -0.41,-0.487c-0.111,-0.683002 -0.157001,-1.355003 0.005001,-2.036003c0.262997,-1.088997 0.940998,-1.869999 1.852997,-2.470997c0.956001,-0.630001 2.021,-1.001003 3.122002,-1.277c1.323002,-0.327 2.661999,-0.548 4.028999,-0.544003c0.695,0.000999 1.382,0.082001 2.049999,0.284c1.493,0.451 2.414001,1.448002 2.753002,2.955002c0.218998,0.979 0.425999,1.967999 0.526001,2.962997c0.229,2.281002 -0.382,4.328001 -1.889,6.084002c-0.027,0.034 -0.045002,0.075001 -0.071003,0.118z" fill="url(#SVGID_33_)"/>
  <g id="svg_44">
   <path id="svg_45" d="m42.355,-28.207001c0.112999,-0.684999 1.399002,-0.870998 1.996002,-0.851c1.050999,0.035 1.730999,0.648001 2.413998,1.444c0.110001,0.130001 0.195999,0.257999 0.271,0.389c1.190002,-0.948999 1.855,-2.233999 1.672001,-3.545c-0.324001,-2.310001 -3.168999,-3.817001 -6.352001,-3.369999c-2.201,0.309998 -3.987999,1.474998 -4.771999,2.927999c0.582001,0.743999 0.810001,1.688999 1.577,2.333c0.747002,0.624001 2.223,0.713999 3.194,0.671999z" fill="#F6E8A0" opacity="0.3"/>
  </g>
  <path id="svg_46" d="m-35.044998,-6.486c0.688999,-0.34 1.168999,-0.414 1.595997,-0.26c-0.490997,2.5 -0.747997,5.021 -0.660999,7.558c0.098,2.808 0.584,5.542 1.816002,8.102c0.155998,0.325001 0.336998,0.64 0.548998,0.940001c-0.012999,-0.05 -0.021,-0.101 -0.039999,-0.147c-0.663002,-1.665 -0.969002,-3.403 -1.07,-5.187c-0.157001,-2.78 0.169998,-5.516 0.771,-8.225c0.014,-0.066 0.034,-0.13 0.061001,-0.226c0.393,0.264 0.775999,0.516 1.148998,0.781c0.045,0.033 0.046001,0.154 0.036001,0.231c-0.191,1.645 -0.177,3.289 0,4.934c0.254,2.35 0.834,4.615 1.660999,6.821c1.153,3.08 2.714001,5.94 4.622,8.612999c0.044001,0.062 0.089001,0.124001 0.131001,0.187c0.008999,0.014 0.007999,0.031 0.021,0.082001c-0.278,-0.098 -0.538,-0.187 -0.798,-0.281c-1.756001,-0.636 -3.476,-1.354 -5.132,-2.222c-0.258999,-0.134 -0.508999,-0.303 -0.728001,-0.496c-2.330997,-2.064 -3.704998,-4.674 -4.326,-7.701c-0.092999,-0.45 -0.159,-0.908 -0.284,-1.36c0.028,0.502 0.041,1.006 0.085003,1.508c0.208,2.389 0.654999,4.734 1.459999,6.997c0.204998,0.575 0.062,1.094 -0.025002,1.634c-0.027,0.168 -0.146,0.322 -0.223999,0.483001c-0.129002,-0.125 -0.287998,-0.230001 -0.381001,-0.378c-0.661999,-1.053 -1.088001,-2.209001 -1.438,-3.395c-0.535,-1.814 -0.854,-3.68 -1.117001,-5.554c-0.243999,-1.75 -0.399998,-3.51 -0.391998,-5.279c0.008999,-1.789 0.146,-3.562 0.740997,-5.27c0.283001,-0.812 0.664001,-1.573 1.213001,-2.238c0.195999,-0.238 0.437,-0.441 0.656002,-0.661c0.016998,0.004 0.031998,0.006 0.048,0.009z" fill="url(#SVGID_34_)"/>
  <path id="svg_47" d="m-26.934999,17.653999c0,0 -4.446001,-0.625 -6.321001,-3.683c-1.875999,-3.056 -2.415001,-8.312 -2.415001,-8.312s-0.959999,-7.839 2.222,-12.404c-2.015999,16.74 6.514002,24.398999 6.514002,24.398999z" fill="#2B2B2B" opacity="0.2"/>
  <path id="svg_48" d="m-35.044998,-6.486c-0.016003,-0.003 -0.031002,-0.005 -0.047001,-0.007c-0.917,0.358 -1.634003,0.975 -2.219002,1.75c-0.853001,1.13 -1.301998,2.437 -1.577999,3.804c-0.410999,2.038 -0.445999,4.098 -0.271,6.159c0.099998,1.177 0.272999,2.35 0.415001,3.521c0.004997,0.042 0.006001,0.083 0.009998,0.168c-0.071999,-0.062 -0.123001,-0.097 -0.163998,-0.14c-3.401001,-3.525 -5.957001,-7.584 -7.631001,-12.191c-0.044003,-0.12 -0.030003,-0.282 0.007999,-0.408c0.999001,-3.194 2.445,-6.183 4.216,-9.013c0.748001,-1.193999 1.572998,-2.339999 2.363998,-3.507c0.062,-0.091999 0.134003,-0.174999 0.248001,-0.323c0.028,0.587 0.341,1.062 0.099998,1.637c-0.308998,0.733 -0.507999,1.504001 -0.466999,2.316c0.016003,0.3 0.088001,0.58 0.296001,0.858001c0.207001,-0.588 0.367001,-1.167001 0.827999,-1.610001c0.135002,0.241 0.161999,0.451 0.077,0.709c-0.320999,0.958 -0.543999,1.937 -0.482998,2.956c0.018997,0.312 0.09,0.619 0.174999,0.933001c0.278999,-0.765 0.739998,-1.391001 1.272999,-1.992001c0.031002,0.046 0.059002,0.076 0.076,0.112c0.710999,1.469999 1.622002,2.805 2.707001,4.023c0.049,0.058 0.045998,0.163 0.067001,0.245z" fill="url(#SVGID_35_)"/>
  <path id="svg_49" d="m-38.485001,-10.406c0,0 -5,9.785 -2.66,18.188c0.291,0.23 -0.468998,-0.363 -1.374001,-1.404c-0.138,-0.158 -1.814999,-11.254 1.588001,-16.145999c-4.574001,5.426 -2.408001,15.121 -2.601002,14.838c-0.409,-0.604 -0.775997,-1.271 -1.017998,-1.968c-2.339001,-10.956 5.744999,-17.55 5.744999,-17.55l0.32,4.042z" fill="#2B2B2B" opacity="0.2"/>
  <path id="svg_50" d="m38.030998,-45.634998c-0.206997,-0.314003 -0.445999,-0.630001 -0.635998,-0.978001c-0.174999,-0.316002 -0.209999,-0.676003 -0.094002,-1.032001c0.143002,-0.439999 0.438,-0.609001 0.895,-0.544998c0.367001,0.056 0.735001,0.112 1.104,0.123997c0.392002,0.013 0.420002,-0.039997 0.464001,-0.420998c0.011002,-0.101002 0.023998,-0.205002 0.061001,-0.297001c0.147999,-0.376999 0.367001,-0.702 0.805,-0.759998c0.424999,-0.056 0.723999,0.181999 0.953999,0.508999c0.685001,0.970001 0.117001,2.280998 -1.072998,2.438999c-0.369003,0.049 -0.754002,-0.010998 -1.132,-0.021c-0.073002,-0.002998 -0.145,-0.015999 -0.218002,-0.021999c-0.017998,0.021 -0.035999,0.044998 -0.055,0.065998c0.102001,0.119003 0.181,0.277 0.309002,0.352001c0.271999,0.153 0.562,0.216 0.896,0.178001c2.036999,-0.233002 3.98,0.007999 5.708,1.229c0.959,0.679001 1.667,1.57 2.209,2.604c0.002998,0.007 0.009998,0.014 0.013,0.021c0.067997,0.188 0.207001,0.417 0.021999,0.559998c-0.108002,0.084003 -0.354,0.047001 -0.517002,-0.005997c-0.760998,-0.25 -1.5,-0.567001 -2.269997,-0.777c-1.126003,-0.308002 -2.292004,-0.318001 -3.450001,-0.255001c-1.565002,0.084 -3.103001,0.333 -4.581001,0.888c-1.657001,0.621998 -3.152,1.5 -4.449001,2.709c-0.148998,0.139999 -0.299999,0.277 -0.466999,0.389999c-0.283001,0.188 -0.475998,0.095001 -0.487,-0.247002c-0.007999,-0.241997 0.015999,-0.490997 0.070999,-0.728996c0.554001,-2.417004 2.021,-4.117001 4.188,-5.240002c0.567001,-0.297001 1.177002,-0.506001 1.73,-0.738998z" fill="#E65270"/>
  <path id="svg_51" d="m-48.025002,-0.646c-0.086998,-8.721 2.718002,-16.288999 8.558002,-22.715c-0.082001,0.592001 -0.191002,1.184 -0.241001,1.775c-0.083,1.009001 -0.136002,2.021 -0.185001,3.035c-0.009998,0.206001 -0.062,0.369001 -0.177998,0.534c-2.187,3.155001 -4.193001,6.419001 -5.792999,9.918c-0.812,1.775 -1.506001,3.598 -1.878002,5.522c-0.120998,0.622 -0.186001,1.253 -0.283001,1.931z" fill="url(#SVGID_36_)"/>
  <path id="svg_52" d="m23.298,28.031c1.046,1.809 2.125,3.549999 2.507999,5.601c0.064001,0.342999 0.044001,0.708 0.023001,1.062c-0.114,1.978001 0.091,3.909 0.732,5.792999c0.056999,0.167 0.125999,0.343002 0.122,0.513c-0.003,0.140999 -0.076,0.304001 -0.17,0.415001c-0.120001,0.140999 -0.283001,0.091 -0.437,0.002998c-0.493,-0.278999 -0.851,-0.688999 -1.138,-1.166c-0.584,-0.959 -0.895,-2.021 -1.112,-3.105999c-0.594999,-2.974998 -0.684999,-5.983 -0.568001,-9.007c0.001001,-0.016001 0.011,-0.030001 0.040001,-0.108z" fill="url(#SVGID_37_)"/>
  <path id="svg_53" d="m23.914,39.555c0.190001,0.403999 0.972,1.287998 1.286001,1.542999l0.706999,0.451c-0.709999,-1.812 -0.965,-3.655998 -0.965,-5.585999c0,-1.625999 0.501001,-3.136002 0.58,-4.754002c0.064001,-1.333 -0.517,-2.003 -1.209,-3.087999c-0.312,-0.488001 -0.737999,-1.545 -1.416,-1.549c-0.313999,0.771 -0.262999,1.737 -0.271,2.562c-0.008999,0.987 -0.167,1.949999 -0.128,2.947001c0.074001,1.882 1.09,6.779999 1.416,7.473999z" fill="#8B4FBA" opacity="0.4"/>
  <path id="svg_54" d="m48.256001,-38.389999c-0.029999,-0.024002 -0.040001,-0.028 -0.042999,-0.034c-0.769001,-1.581001 -2.136002,-2.271 -3.788002,-2.41c-2.729,-0.232002 -5.347,0.278999 -7.830997,1.421001c-1.047001,0.481998 -1.943001,1.181999 -2.447002,2.257999c-0.217999,0.465 -0.323997,0.982998 -0.487,1.493999c-0.542,0.002998 -1.187,-0.533001 -1.23,-1.111c-0.014,-0.188 0.064999,-0.397999 0.150002,-0.574001c0.342999,-0.709 0.893997,-1.245998 1.494999,-1.731998c1.544998,-1.247002 3.313999,-2.034 5.231998,-2.498001c2.519001,-0.610001 5.038002,-0.627998 7.530003,0.126999c0.589996,0.179001 1.148998,0.479 1.696999,0.771c0.424,0.227001 0.639999,0.615002 0.577,1.120003c-0.068001,0.543999 -0.349998,0.933998 -0.855,1.167999z" fill="#E65270"/>
  <path id="svg_55" d="m48.256001,-38.389999c-0.029999,-0.024002 -0.040001,-0.028 -0.042999,-0.034c-0.769001,-1.581001 -2.136002,-2.271 -3.788002,-2.41c-2.729,-0.232002 -5.347,0.278999 -7.830997,1.421001c-1.047001,0.481998 -1.943001,1.181999 -2.447002,2.257999c-0.217999,0.465 -0.323997,0.982998 -0.487,1.493999c-0.542,0.002998 -1.187,-0.533001 -1.23,-1.111c-0.014,-0.188 0.064999,-0.397999 0.150002,-0.574001c0.342999,-0.709 0.893997,-1.245998 1.494999,-1.731998c1.544998,-1.247002 3.313999,-2.034 5.231998,-2.498001c2.519001,-0.610001 5.038002,-0.627998 7.530003,0.126999c0.589996,0.179001 1.148998,0.479 1.696999,0.771c0.424,0.227001 0.639999,0.615002 0.577,1.120003c-0.068001,0.543999 -0.349998,0.933998 -0.855,1.167999z" fill="#2B2B2B" opacity="0.4"/>
  <g id="svg_56">
   <path id="svg_57" d="m20.855,-13.299c-0.018999,-0.977 0.185001,-1.896 0.606001,-2.768c0.851999,-1.751001 2.257,-2.896 4.017,-3.647001c1.535,-0.656 3.146,-0.879 4.806,-0.792999c0.021,0.000999 0.042,0.01 0.112999,0.032c-1.160999,0.179001 -2.241999,0.468 -3.285999,0.885c-1.809999,0.723 -3.406,1.750999 -4.645,3.284c-0.664999,0.82 -1.166,1.733 -1.507999,2.735c-0.030001,0.092 -0.068001,0.182 -0.103001,0.272z" fill="#0D0D0D"/>
   <path id="svg_58" d="m34.410999,0.682c1.787003,1.091 2.173,3.654 1.028,5.119c0.269001,-1.83 -0.100998,-3.53 -1.028,-5.119z" fill="#0D0D0D"/>
   <path id="svg_59" d="m37.358002,-9.376c0.873997,-0.716 1.924999,-0.914 3.021999,-0.895c0.438,0.011 0.874001,0.083 1.312,0.104c0.237,0.011 0.484997,-0.004001 0.717999,-0.055c0.442001,-0.101 0.639,-0.033 0.790001,0.391c0.341999,0.967 0.502998,1.969 0.388,2.99c-0.056,0.49 -0.158001,0.992 -0.352001,1.441c-0.763,1.783 -3.073002,2.516 -4.784,1.542c-0.220001,-0.125 -0.428001,-0.271 -0.625,-0.433c-0.208,-0.169 -0.396,-0.365 -0.612,-0.567c0.096001,-0.111 0.175999,-0.218 0.265999,-0.311c0.207001,-0.212 0.285,-0.463 0.222,-0.745c-0.195999,-0.886 0.187,-1.515 0.926003,-1.918c0.528,-0.288 1.105999,-0.495 1.681,-0.687c0.295998,-0.101 0.600998,-0.173 0.910999,-0.235c0.095001,0.002999 0.134998,0.019 0.209,0.078c0.460999,0.297999 0.791,0.689 0.994999,1.201c0.110001,-0.302 0.088001,-0.804 -0.008999,-1.177001c-0.060001,-0.23 -0.021,-0.794 0.096001,-0.957999c-0.009003,-0.01 -0.018002,-0.021 -0.024002,-0.030001c-0.055,0.026 -0.108997,0.054 -0.160999,0.085c-0.591999,0.363 -1.253998,0.478001 -1.929001,0.562c-0.834999,0.106 -1.646999,0.297 -2.357998,0.778c-0.856003,0.579 -1.315002,1.384 -1.364002,2.419c-0.001999,0.032 -0.007,0.062 -0.017998,0.147c-0.774002,-1.513 -0.537003,-2.712 0.700001,-3.727z" fill="#0D0D0D"/>
  </g>
  <path id="svg_60" d="m38.491001,-6.119c0,-0.941 0.763,-1.704 1.702,-1.704c0.941998,0 1.704998,0.763 1.704998,1.704s-0.763,1.704 -1.704998,1.704c-0.938999,0 -1.702,-0.763 -1.702,-1.704z" fill="url(#SVGID_38_)"/>
  <use id="svg_61" xlink:href="#New_Symbol_2" transform="matrix(-0.2012 0 0 0.2012 39.0508 -5.1309)" y="-3.5" x="-3" height="7" width="6"/>
  <path id="svg_62" d="m46.108002,-34.830002c0.301998,-0.188 0.772999,-0.107998 0.947998,0.224003c0.726002,1.382 0.66,2.991999 -0.050999,4.365999c-0.408001,0.788 -1.630001,0.152 -1.223,-0.632999c0.484997,-0.939001 0.584,-2.093 0.100998,-3.014002c-0.173,-0.329998 -0.111,-0.736 0.225002,-0.943001z" fill="#FFFFFF"/>
  <g id="svg_63">
   <path id="svg_64" d="m-27.877001,-38.808998c-0.429998,12.318998 7.165001,8.311998 10.544001,13.512999c0.276001,0.323999 0.437,0.688 0.563,0.969999c-3.792999,-2.087999 -14.424,-0.692999 -11.107,-14.482998z" fill="#430A1D" opacity="0.2"/>
  </g>
  <g id="svg_65">
   <path id="svg_66" d="m-33.660999,-14.793c10.431,8.98 31.024999,8 32.531999,7.873c-8.638,-6.161 -34.552,-0.369 -35.502001,-19.122c-1.682999,5.326 0.484001,9.108 2.970001,11.249z" fill="#2B2B2B" opacity="0.2"/>
  </g>
  <path id="svg_67" d="m-16.988001,-24.815001c0,0 -0.000999,-2.722 0,-4.644999c0.001001,-1.922001 -2.415998,-0.874001 -3.348,1.764999c2.329,0.913 3.348,2.879999 3.348,2.879999z" fill="#430A1D" opacity="0.2"/>
  <path id="svg_68" d="m-18.280001,-25.728001c1.747,3.083 -0.047998,5.75 -0.327,5.864c0.993,0.052 2.900001,1.914 3.354,2.534c0.71,0.971001 0.753,2.381 0.813001,3.534c1.408999,0.063 2.4,0.926 3.681999,1.231999c-1.089999,-1.021 -2.568999,-2.229 -3.231,-3.605c-0.589,-1.222 -1.087,-2.629 -1.483,-3.928999c-0.323,-1.065001 -0.624001,-2.123001 -0.823999,-3.222c-0.148001,-0.818001 -0.631001,-1.919001 -0.543001,-2.716c0,0 -0.179998,-7.171001 1.258,-10.712002c-2.721999,0.927002 -4.151,3.149002 -4.647,4.009003c-0.560999,0.972998 -1.618,3.391998 -0.309,4.932999c0.846001,0.309 1.772001,1.223 2.257,2.077999z" fill="#430A1D" opacity="0.2"/>
  <path id="svg_69" d="m-43.785,-35.042999c5.481998,-7.553001 12.813999,-12.407001 21.927,-14.515999c3.035999,-0.703003 6.123,-0.896004 9.237,-0.884003c7.618001,0.033001 15.235,0.014 22.852,0.014999c5.124,0.002003 10.248,0 15.370999,0.013c1.219,0.002003 2.435001,0.083 3.601,0.489002c1.144001,0.396 2.027,1.097 2.518002,2.231998c0.704998,1.639 0.102999,3.701 -1.417,4.812c-1.116001,0.813999 -2.396,1.050999 -3.745001,0.991001c-0.362,-0.018002 -0.724001,-0.074001 -1.084999,-0.111c-0.083,-0.009003 -0.172001,-0.028 -0.251001,-0.010002c-0.115999,0.025002 -0.226,0.083 -0.337999,0.125c0.063999,0.094002 0.110001,0.208 0.194,0.277c1.393,1.185001 2.351999,2.645 2.810999,4.417c0.167,0.645 0.216002,1.299999 0.156,1.961002c-0.004,0.051998 -0.007999,0.102997 -0.01,0.151997c-0.012999,0.342003 0.103001,0.448002 0.441,0.464001c0.996,0.046001 1.992001,0.085003 2.985001,0.163002c0.475,0.037998 0.943998,0.153999 1.479002,0.188c-0.063004,-0.082001 -0.109001,-0.202999 -0.192001,-0.241001c-0.794001,-0.367001 -1.313,-0.979 -1.573,-1.794998c-0.305,-0.961002 -0.519001,-1.943001 -0.475,-2.962002c0.067999,-1.646 0.708,-3.062 1.75,-4.311001c0.937,-1.119999 2.091,-1.962997 3.396,-2.602997c0.167999,-0.082001 0.211998,-0.154003 0.153999,-0.344002c-0.167,-0.537998 -0.146999,-1.082001 0.042999,-1.619999c0.115002,-0.328003 0.326,-0.566002 0.627003,-0.735001c0.685997,-0.382 1.475998,-0.437 2.223999,-0.123001c0.021,-0.106998 0.039001,-0.228001 0.065998,-0.332001c0.216,-0.82 0.745003,-1.146 1.544003,-1.625999c0.186001,0 0.371998,0 0.557999,0c0.022999,0 0.043999,0.059002 0.067001,0.063c1.406998,0.237 1.997997,1.523003 1.834999,2.741001c-0.042,0.313999 -0.132999,0.623001 -0.194,0.905998c0.637001,0.168003 1.293999,0.298 1.921001,0.517002c2.895,1.007999 4.806,2.961998 5.615997,5.938c0.323002,1.190998 0.123001,2.257999 -0.800999,3.141998c-0.057999,0.058002 -0.063,0.198002 -0.049,0.293003c0.179001,1.125 0.457001,2.241997 0.529999,3.373997c0.173,2.686001 -0.670998,5.041002 -2.537998,7.004002c-0.110001,0.115 -0.117001,0.212999 -0.088001,0.354c0.123001,0.601999 0.264,1.202999 0.338001,1.812c0.153,1.229 -0.316002,2.247 -1.135002,3.133999c-0.071999,0.079 -0.153,0.164001 -0.187,0.262001c-0.229,0.683001 -0.702,1.148001 -1.327,1.462c-1.259998,0.635 -2.595997,0.764 -3.973,0.535c-0.902,-0.150999 -1.724998,-0.531 -2.540001,-0.917c-0.359997,-0.17 -0.688999,-0.254999 -1.021999,0.035999c-0.056,0.049 -0.145,0.061001 -0.197998,0.107c-0.091999,0.087 -0.247002,0.208 -0.229,0.281c0.023998,0.112 0.155998,0.239 0.271999,0.285c0.633999,0.25 1.289001,0.385 1.976002,0.385c0.514999,0 1.032997,0.014 1.542999,0.075001c1.626999,0.196999 3.118999,0.783998 4.52,1.619999c0.092999,0.056 0.196999,0.104 0.301998,0.121c1.811001,0.277 3.265999,1.7 3.582001,3.502c0.032001,0.182 0.028,0.391 0.121998,0.536c0.767002,1.186 0.830002,2.446 0.386002,3.741c-0.280998,0.818999 -0.671001,1.604 -0.98,2.413c-0.164001,0.435 -0.333,0.883 -0.375,1.335c-0.112,1.283 -0.282001,2.554 -0.625999,3.793c-0.735001,2.646 -2.045002,4.939 -4.148003,6.738c-2.122997,1.815 -4.612,2.771 -7.368999,3.064c-0.243,0.025 -0.370998,0.103 -0.477997,0.343c-0.602001,1.365 -1.592003,2.324 -3.017002,2.822c-0.369999,0.129001 -0.738998,0.158 -1.087,0.001c-0.496,-0.229 -1.000999,-0.457 -1.445999,-0.771c-1.164001,-0.812 -2.085001,-1.867001 -2.85,-3.06c-0.059,-0.09 -0.125999,-0.208 -0.215,-0.238c-0.120001,-0.039 -0.297001,-0.053 -0.389,0.011c-0.071001,0.048 -0.087,0.242 -0.059,0.355c0.032,0.133 0.133999,0.251 0.214001,0.368c2.025999,2.93 3.314999,6.153 3.907999,9.665999c0.02,0.110001 0.098,0.229 0.181,0.312c0.497,0.507 1.012001,0.996 1.505001,1.507c0.790001,0.815001 1.273998,1.801001 1.531998,2.897001c0.067001,0.286999 0.099003,0.581999 0.119003,0.875c0.005997,0.088999 -0.081001,0.182999 -0.125,0.275c-0.095001,-0.055 -0.219002,-0.088001 -0.277,-0.167c-0.135002,-0.184 -0.23,-0.395 -0.354,-0.585001c-0.082001,-0.125999 -0.189003,-0.233 -0.286003,-0.354c-0.029999,0.071001 -0.022999,0.111 -0.007999,0.148001c0.531002,1.35 0.899002,2.740999 1.077,4.183001c0.050003,0.400999 0.084003,0.807999 0.094002,1.212c0.007999,0.293999 -0.187,0.48 -0.383999,0.400999c-0.105,-0.042999 -0.196003,-0.131001 -0.277,-0.212c-0.788002,-0.780001 -1.717001,-1.358999 -2.669001,-1.907c-0.021,0.028999 -0.037001,0.042 -0.038,0.056999c-0.026001,0.142 -0.052,0.282 -0.073,0.424c-0.255001,1.665001 -0.694,3.284 -1.201,4.890001c-0.388,1.226 -0.607,2.478998 -0.393,3.770998c0.128,0.769001 0.400999,1.467003 1.053999,1.957001c0.050001,0.036999 0.083,0.096001 0.140001,0.161999c-0.076,0.039001 -0.123001,0.077003 -0.176001,0.088001c-0.944,0.208 -1.919001,0.086002 -2.448,-0.996998c-0.059999,-0.121002 -0.139999,-0.230003 -0.25,-0.412003c-0.118999,0.238003 -0.237,0.394001 -0.275,0.563999c-0.188,0.854 -0.234001,1.723003 -0.154001,2.596001c0.101002,1.078003 0.482,2.065002 0.951,3.027c0.121,0.25 0.236,0.507 0.314001,0.771c0.139,0.479 -0.128,0.833 -0.629,0.825001c-0.249001,-0.005001 -0.511002,-0.043999 -0.741001,-0.131001c-1.233999,-0.464001 -2.171999,-1.278999 -2.796,-2.445999c-0.051001,-0.095001 -0.097,-0.188999 -0.153,-0.303001c-0.495001,0.481003 -0.946001,0.950001 -1.181,1.592003c-0.151001,0.410999 -0.349001,0.806999 -0.554001,1.191998c-0.147999,0.276001 -0.257999,0.27 -0.438,0.019001c-0.049,-0.068001 -0.091999,-0.142002 -0.145,-0.207001c-0.137999,-0.167 -0.244999,-0.167999 -0.354,0.021c-0.097,0.166 -0.17,0.348999 -0.236,0.528c-0.321999,0.869999 -0.848,1.591999 -1.571999,2.169003c-0.049,0.036999 -0.105001,0.065998 -0.220001,0.136997c0.042,-0.274998 0.077,-0.487999 0.105001,-0.702c0.029999,-0.218998 0.054998,-0.438 0.082998,-0.668999c-0.066,0.007999 -0.084999,0.006001 -0.098,0.014c-0.070999,0.044998 -0.142,0.091999 -0.211,0.140999c-2.924,2.021 -6.120999,3.424999 -9.576999,4.244999c-1.053,0.25 -2.157001,0.338001 -3.108,0.936001c-0.021,0.014 -0.048,0.021 -0.071,0.032001c-0.188,0.073997 -0.326,0.033001 -0.472,-0.112999c-0.093,-0.092003 -0.259,-0.133003 -0.391,-0.131001c-0.423,0.009998 -0.844,0.103001 -1.265,0.138c-0.386,0.031998 -0.784,0.119999 -1.156,0.212997c-0.636,0.160999 -1.255,0.780003 -1.881,0.780003c-0.152,0 -0.306,0 -0.457,0c-0.146,0 -0.319,-0.420002 -0.437,-0.567001c-0.207,-0.258999 -0.461,-0.562 -0.786,-0.583c-2.154,-0.133999 -4.283,-0.445999 -6.379,-0.969002c-3.192,-0.792 -6.191,-2.021 -8.877,-3.952999c-1.963,-1.412998 -3.647,-3.091 -4.841001,-5.217999c-0.243999,-0.431999 -0.436998,-0.896 -0.629999,-1.353001c-0.146999,-0.352001 -0.181999,-0.723999 -0.059999,-1.092999c0.101999,-0.303001 0.330999,-0.471001 0.639,-0.423c1.754999,0.275997 3.24,-0.365002 4.61,-1.360001c1.362,-0.991001 2.4,-2.261002 2.992,-3.849001c0.872,-2.346001 0.400001,-4.445999 -1.243999,-6.305c-0.166,-0.188 -0.354,-0.358 -0.556001,-0.562c-0.075999,0.285 -0.139,0.544001 -0.214,0.803001c-0.372,1.269999 -0.903,2.455 -1.806999,3.445c-0.525002,0.577 -0.733,-0.106001 -0.601,-1.151001c0.283998,-2.222 -0.398001,-4.132999 -1.945002,-5.739c-0.094,-0.098999 -0.236,-0.16 -0.368999,-0.206999c-1.629999,-0.578001 -3.271,-1.125999 -4.892,-1.729c-2.893999,-1.076 -5.688,-2.371 -8.336,-3.965c-0.035999,-0.021 -0.073997,-0.041 -0.112999,-0.062c-0.250999,0.162001 -0.354,0.403999 -0.342999,0.674c0.014,0.360001 0.072998,0.720001 0.114998,1.079c0.004002,0.042999 0.018002,0.083 0.021999,0.125c0.086002,0.635 -0.161999,0.841999 -0.746998,0.558001c-0.292999,-0.143 -0.562,-0.380001 -0.773003,-0.631001c-0.674,-0.806999 -1.091999,-1.763 -1.493,-2.721c-0.211998,-0.506001 -0.379997,-1.030001 -0.593998,-1.535001c-0.077999,-0.184999 -0.201,-0.370999 -0.353001,-0.5c-2.292999,-1.95 -4.429001,-4.047999 -6.240002,-6.464c-1.550999,-2.07 -2.875,-4.271 -3.949997,-6.625c-0.027,-0.062 -0.058002,-0.122 -0.088001,-0.182c-0.007999,-0.014 -0.023998,-0.021 -0.057999,-0.052c-0.352001,2.063 -0.422001,4.117 -0.215,6.192c-0.165001,-0.616 -0.348,-1.229 -0.492001,-1.85c-0.588001,-2.504 -0.771,-5.039 -0.596001,-7.604c0.008999,-0.13 -0.023998,-0.27 -0.063999,-0.396c-0.763,-2.398 -1.291,-4.849 -1.514999,-7.354001c-0.783001,-8.752 1.343998,-16.753999 6.508999,-23.871999zm-2.078999,26.943999c1.599998,-3.499 3.605999,-6.763 5.792999,-9.918c0.114998,-0.166 0.167999,-0.329 0.177998,-0.534c0.049,-1.014 0.102001,-2.025 0.185001,-3.035c0.049999,-0.594 0.159,-1.185999 0.241001,-1.775c-5.84,6.426001 -8.645,13.994 -8.558002,22.715c0.098,-0.677 0.162003,-1.309 0.283001,-1.929c0.372002,-1.926 1.066002,-3.747 1.878002,-5.524zm21.460999,25.818999c-0.013,-0.050999 -0.012001,-0.067999 -0.021,-0.081999c-0.042,-0.062 -0.087,-0.124001 -0.131001,-0.187c-1.907999,-2.673 -3.469,-5.534 -4.622,-8.613c-0.827,-2.206 -1.407,-4.473001 -1.660999,-6.821c-0.177,-1.645 -0.191,-3.289 0,-4.934c0.01,-0.077 0.008999,-0.198 -0.036001,-0.231c-0.372999,-0.267 -0.757,-0.519 -1.148998,-0.781c-0.026001,0.095 -0.047001,0.158 -0.061001,0.226c-0.602001,2.709 -0.929001,5.443 -0.771,8.225c0.102001,1.782 0.406998,3.521 1.07,5.187c0.018999,0.048 0.027,0.099 0.039999,0.147c-0.212,-0.302999 -0.393,-0.615 -0.548998,-0.94c-1.232002,-2.561 -1.719002,-5.294 -1.816002,-8.102c-0.086998,-2.536 0.170002,-5.058 0.660999,-7.558c-0.426998,-0.153 -0.905998,-0.08 -1.595997,0.26c-0.021004,-0.083 -0.019001,-0.188 -0.067001,-0.244c-1.084999,-1.22 -1.996002,-2.555 -2.707001,-4.023c-0.018002,-0.037 -0.044998,-0.066 -0.076,-0.112c-0.533001,0.604 -0.993999,1.229 -1.272999,1.992c-0.084999,-0.311999 -0.156002,-0.62 -0.174999,-0.933c-0.061001,-1.021 0.161999,-1.998 0.482998,-2.956c0.084999,-0.257999 0.058002,-0.467999 -0.077,-0.709c-0.460999,0.441999 -0.620998,1.022 -0.827999,1.61c-0.208,-0.278 -0.279999,-0.559999 -0.296001,-0.858c-0.041,-0.812 0.158001,-1.583 0.466999,-2.316c0.241001,-0.573 -0.070999,-1.05 -0.099998,-1.637c-0.113998,0.148001 -0.187,0.23 -0.248001,0.323c-0.791,1.167 -1.615997,2.312 -2.363998,3.507c-1.771,2.831 -3.216999,5.817 -4.216,9.013c-0.038002,0.126 -0.052002,0.288 -0.007999,0.408c1.674,4.605 4.229,8.666 7.631001,12.191c0.040997,0.042999 0.091999,0.078 0.163998,0.139999c-0.003998,-0.084 -0.005001,-0.125999 -0.009998,-0.167999c-0.142002,-1.173 -0.315002,-2.346001 -0.415001,-3.521c-0.174999,-2.062 -0.139999,-4.121 0.271,-6.159c0.276001,-1.367 0.726002,-2.673 1.577999,-3.804c0.584999,-0.774 1.302002,-1.392 2.220001,-1.75c-0.221001,0.22 -0.460999,0.422 -0.657001,0.661c-0.549,0.665 -0.93,1.427 -1.212997,2.238c-0.596001,1.707 -0.732002,3.479 -0.741001,5.27c-0.008999,1.771 0.146999,3.528 0.391998,5.279c0.263,1.874 0.582001,3.737 1.117001,5.554c0.350002,1.186 0.775002,2.342 1.438,3.395c0.093002,0.146 0.252003,0.253 0.381001,0.378c0.077,-0.160999 0.195999,-0.315 0.223999,-0.483c0.088001,-0.541 0.230003,-1.06 0.025002,-1.634c-0.805,-2.264 -1.251999,-4.607 -1.459999,-6.997c-0.044003,-0.502 -0.056999,-1.006 -0.084999,-1.508c0.125,0.452 0.190998,0.91 0.283997,1.36c0.621002,3.027 1.995003,5.637 4.326002,7.701c0.219,0.193 0.469,0.362 0.727999,0.496c1.656,0.866 3.376001,1.585999 5.132,2.221999c0.259001,0.091002 0.518002,0.181 0.797001,0.278zm51.087,23.279001c0.004,-0.170002 -0.065001,-0.346001 -0.122,-0.513c-0.642,-1.883999 -0.847,-3.816002 -0.732,-5.792999c0.021,-0.354 0.041,-0.720001 -0.023001,-1.062c-0.382999,-2.050001 -1.462,-3.792 -2.507999,-5.601c-0.028999,0.077999 -0.039,0.091999 -0.039,0.104c-0.116001,3.021 -0.026001,6.032 0.567999,9.006998c0.218,1.087002 0.528002,2.146999 1.112001,3.106003c0.286999,0.475998 0.644999,0.885998 1.137999,1.165997c0.153002,0.087002 0.316,0.138 0.437,-0.002998c0.092001,-0.106998 0.166,-0.27 0.169001,-0.410999zm1.249001,-16.018c-0.477001,-0.345001 -0.978001,-0.669001 -1.502001,-0.934c-1.844,-0.927 -3.798,-1.587002 -5.73,-2.299002c-0.375999,-0.137999 -0.737,-0.335999 -1.073,-0.556c-0.668001,-0.438 -1.165001,-1.052 -1.596001,-1.716c-0.205999,-0.313999 -0.399,-0.638 -0.598999,-0.957001c0.004999,0.107 0.038,0.201 0.064999,0.298c0.228001,0.776001 0.488001,1.546001 0.671001,2.334c0.254999,1.099001 0.658998,2.126001 1.271,3.068001c0.330999,0.509001 0.699999,0.996 1.022999,1.513c0.204,0.323999 0.382,0.676001 0.524,1.032c0.084,0.214001 0.075001,0.464001 0.109001,0.697001c-0.034,0.017 -0.067001,0.034 -0.103001,0.049999c-0.101999,-0.086 -0.218,-0.160999 -0.305,-0.261c-0.355,-0.407 -0.695999,-0.827999 -1.059999,-1.228001c-0.079,-0.088999 -0.255001,-0.175999 -0.344,-0.143999c-0.085001,0.031 -0.175001,0.219999 -0.163,0.33c0.045,0.441 0.070999,0.896 0.209,1.312c0.190001,0.573 0.49,1.109999 0.712,1.677c0.108999,0.275999 0.18,0.581999 0.205,0.878c0.012001,0.139999 -0.124001,0.292 -0.191,0.436998c-0.118999,-0.080999 -0.256001,-0.146 -0.354,-0.248999c-0.174,-0.183001 -0.313,-0.397001 -0.492001,-0.577c-0.176998,-0.175001 -0.341,-0.146 -0.442999,0.077c-0.073,0.156 -0.146,0.348 -0.122,0.505999c0.060999,0.397001 0.168999,0.787001 0.27,1.179001c0.094,0.356001 0.226999,0.707998 0.299999,1.066999c0.049999,0.243 -0.012001,0.484001 -0.267,0.667c-0.070999,-0.104 -0.149,-0.193001 -0.195,-0.298c-0.1,-0.214001 -0.179001,-0.438 -0.271999,-0.652c-0.215,-0.493998 -0.404001,-1.004999 -0.658001,-1.478998c-0.223999,-0.417 -0.445,-0.380001 -0.686001,0.025c-0.466,0.792 -0.927,1.59 -1.447999,2.346001c-0.287,0.415001 -0.454,0.841999 -0.498,1.327999c-0.058,0.646 -0.09,1.298 -0.158,1.945c-0.026,0.241001 -0.091,0.492001 -0.355,0.720001c-0.056001,-0.272999 -0.103001,-0.497002 -0.147,-0.722c-0.066,-0.330002 -0.111,-0.666 -0.202,-0.989002c-0.063001,-0.227997 -0.246,-0.250999 -0.360001,-0.047997c-0.103,0.183998 -0.173,0.403999 -0.188,0.613998c-0.028,0.396 0.007999,0.793999 -0.013,1.190998c-0.007999,0.18 -0.073,0.361 -0.141,0.532001c-0.029,0.073002 -0.125999,0.122002 -0.191999,0.181999c-0.044001,-0.073997 -0.103001,-0.141998 -0.128,-0.223c-0.031,-0.095001 -0.034,-0.197998 -0.049,-0.299c-0.043,-0.292 -0.067,-0.591 -0.136001,-0.875c-0.073,-0.308998 -0.267,-0.361 -0.459,-0.111c-0.176,0.229 -0.315001,0.5 -0.403,0.774002c-0.135,0.425999 -0.192,0.871998 -0.321,1.301998c-0.06,0.201 -0.198,0.385002 -0.327001,0.556c-0.047999,0.062 -0.188,0.102001 -0.264999,0.079002c-0.057,-0.015003 -0.113,-0.146 -0.116,-0.228001c-0.007,-0.328003 0.006001,-0.658001 0.011,-0.987c0.001,-0.163002 0,-0.326 0,-0.502003c-0.072,0.016003 -0.099999,0.014999 -0.118,0.026001c-0.040999,0.028 -0.082,0.062 -0.115,0.098999c-0.338,0.359001 -0.565,0.776001 -0.636,1.271c-0.031,0.219002 -0.042,0.438 -0.083,0.653c-0.05,0.254002 -0.202,0.351002 -0.46,0.319c-0.271,-0.031998 -0.443,-0.229 -0.47,-0.572998c-0.019,-0.223999 -0.004,-0.448002 -0.004,-0.706001c-0.308,0.158001 -0.582,0.303001 -0.86,0.439999c-2.842,1.407001 -5.843,2.279003 -8.991,2.647003c-2.033,0.237 -4.066,0.243 -6.082,-0.166c-1.219,-0.247002 -2.38,-0.644001 -3.387,-1.407001c-0.148001,-0.110001 -0.284,-0.237999 -0.426001,-0.357998c1.122001,0.648998 1.778001,0.913998 2.79,1.105999c1.842,0.354 3.686,0.300999 5.527,0.034c3.239,-0.471001 6.3,-1.492001 9.177,-3.062c2.23,-1.216 4.243999,-2.707001 5.873,-4.68c0.123,-0.146 0.238999,-0.299 0.354,-0.449001c-3.335,1.593002 -7.102,-1.403999 -10.87,-0.073997c5.164,-2.662003 8.222,0.766998 11.134,-1.452002c0.741,-0.564001 0.873,-2.019001 -0.821,-1.775c-1.616,0.230999 2.434,-0.569 3.16,-4.778c-0.041,-0.687 -0.137,-1.386002 -0.294,-2.101c-0.696,-3.153 -2.164001,-5.938002 -4.18,-8.438001c-2.076,-2.572001 -4.683,-4.489 -7.613,-5.988c-0.042,-0.01 -0.088,-0.025 -0.146,-0.049c0.008,0.035 0.007,0.053 0.013,0.062c0.041,0.065 0.083,0.129 0.125,0.192c1.4,2.081 2.55,4.278 3.109,6.746c0.384,1.689999 0.43,3.383999 -0.104,5.057999c-0.597,1.869001 -1.791,3.292002 -3.351,4.432001c-1.748,1.278 -3.723,2.076 -5.782,2.688c-0.44,0.131001 -0.888,0.247 -1.386,0.384001c0.056,-0.060001 0.062,-0.076 0.076,-0.081001c0.085,-0.035999 0.172,-0.069 0.259,-0.102999c1.438,-0.562 2.808,-1.248001 4.05,-2.175001c1.788,-1.329 3.103,-3.003 3.7,-5.18c0.527,-1.924999 0.41,-3.849998 -0.06,-5.764999c-0.607,-2.48 -1.731,-4.727 -3.088,-6.875c-0.31,-0.491 -0.679,-0.818 -1.237,-0.984c-0.675,-0.199 -1.335,-0.458 -2.065,-0.716c2.066,2.218 2.123,5.338 1.727,7.169c-0.007,-0.032 -0.016,-0.052999 -0.017,-0.075c-0.071,-1.492 -0.579,-2.835999 -1.413,-4.062c-1.244,-1.829999 -2.929,-3.164 -4.831,-4.249c-0.147,-0.084 -0.327,-0.111 -0.492,-0.164c0.688,0.793 1.215,1.657 1.524,2.647c0.3,0.958 0.404,2.46 0.205,2.999001c-0.314,-1.047 -0.641,-1.729 -1.34,-2.62c-1.2,-1.528 -2.593,-2.851 -4.208,-3.951c-1.083,-0.741 -2.217,-1.354 -3.437,-1.82c-2.157,-0.827 -4.407,-1.334 -6.645,-1.882c-1.966,-0.481 -3.929998,-0.98 -5.880999,-1.525c-1.065001,-0.298 -2.088001,-0.737 -2.973,-1.431c-0.158001,0.352 -0.455002,1.596 -0.466002,2.584c-0.129,11.646 9.138,17.871 11.962,21.129c0.822001,0.949001 1.294001,2.112 1.707001,3.288c0.167999,0.477001 0.312,0.961 0.469999,1.455999c0.027,-0.035 0.053001,-0.059 0.066,-0.084c0.789001,-1.514999 1.275001,-3.062 0.895,-4.816c-0.58,-2.682999 -1.659,-5.079 -3.694,-6.978999c-0.021999,-0.021 -0.039999,-0.048 -0.109999,-0.128c0.098999,0.051 0.133999,0.064 0.167,0.085999c1.673,0.964001 3.202,2.110001 4.494999,3.554001c2.174001,2.424 3.341001,5.261 3.502001,8.518999c0.07,1.419001 -0.125,2.82 -0.284,4.221001c-0.422,3.729 -3.146,6.748001 -6.806,7.639c-0.275,0.067001 -0.554001,0.161999 -0.802999,0.292999c-0.351,0.187 -0.448,0.493 -0.315001,0.862999c0.048,0.133003 0.118999,0.262001 0.195,0.382c0.65,1.010002 1.474001,1.845001 2.489,2.492001c0.521,0.331001 1.042,0.660999 1.544,1.02c2.059,1.472 4.275001,2.614002 6.724,3.285999c1.011,0.277 2.033,0.522003 3.095,0.429001c0.333,-0.027 0.657,-0.149998 0.988,-0.188999c0.137,-0.018002 0.287,0.078999 0.432,0.123001c-0.082,0.088997 -0.147,0.210999 -0.248,0.267998c-0.639,0.368 -1.346,0.482002 -2.07,0.506001c-1.065,0.035999 -2.102,-0.166 -3.138,-0.376999c-0.104,-0.021 -0.214,-0.021 -0.321,-0.030003c0.849,0.734001 1.812,1.208 2.855,1.521004c1.715,0.521 3.468,0.637997 5.243,0.488998c0.568,-0.048 1.144,-0.070999 1.668,-0.368c0.514,-0.290001 1.054,-0.533001 1.586,-0.791c0.115,-0.056 0.243,-0.084 0.366,-0.125c0.018,0.021 0.036,0.039001 0.055,0.060001c-0.056,0.143997 -0.102,0.292 -0.173,0.427998c-0.192,0.375999 -0.401,0.743 -0.594,1.118999c-0.035,0.071003 -0.018,0.173 -0.023,0.260002c0.08,0.003998 0.17,0.034 0.239,0.009998c0.408,-0.135998 0.824,-0.256001 1.212,-0.438c0.555,-0.264 1.133,-0.354 1.738,-0.395c0.824,-0.056999 1.65,-0.134998 2.469,-0.251999c1.202,-0.173 2.118,-0.792999 2.712,-1.868c0.139,-0.250999 0.287,-0.497002 0.438,-0.742001c0.054,-0.086998 0.128,-0.160999 0.193,-0.239998c0.029,0.013 0.061,0.023998 0.09,0.039997c-0.187,0.640003 -0.374001,1.279003 -0.571,1.954002c0.623,-0.142002 1.271,-0.573002 1.785,-1.178001c0.26,-0.301998 0.492001,-0.625 0.749001,-0.926998c0.103,-0.120003 0.242,-0.208 0.363999,-0.312c0.034,0.018997 0.069,0.034 0.104,0.054001c-0.05,0.427998 -0.101,0.855 -0.149,1.285c0.025001,0.008999 0.052,0.018997 0.079,0.025997c0.387,-0.236 0.771,-0.479 1.158999,-0.715c1.318001,-0.793999 2.553,-1.688 3.478,-2.947998c0.127001,-0.174 0.222,-0.149002 0.289001,0.062c0.083,0.264999 0.136999,0.538998 0.227999,0.801998c0.027,0.080002 0.138,0.188999 0.202,0.185001c0.089001,-0.007 0.213001,-0.095001 0.243,-0.175999c0.062,-0.170002 0.087,-0.357002 0.099001,-0.542004c0.025,-0.369999 0.016001,-0.741997 0.055,-1.109997c0.011999,-0.113003 0.132,-0.218002 0.204,-0.323002c0.094999,0.084 0.224998,0.150002 0.275,0.256001c0.146999,0.303001 0.255999,0.624001 0.393,0.932999c0.125999,0.286003 0.201,0.291 0.384001,0.048c0.24,-0.320999 0.509998,-0.579998 0.962,-0.548c0.42,0.032001 0.473,0.001003 0.629,-0.389999c0.267,-0.667 0.493999,-1.347 0.768,-2.009998c0.129999,-0.316002 0.329,-0.604 0.486,-0.908001c0.039,-0.071999 0.073,-0.174999 0.052999,-0.245998c-0.556,-1.795002 -0.709999,-3.644001 -0.728001,-5.508003c-0.016998,-1.724998 0.017,-3.449999 -0.042,-5.171999c-0.045,-1.347 -0.271,-2.660999 -1.275999,-3.698999c0.139,0.044001 0.271,0.094 0.395,0.158001c0.647999,0.335999 1.177999,0.818998 1.642,1.375c1.025999,1.227999 1.700998,2.65 2.299,4.120998c0.479,1.178001 0.962,2.355001 1.465,3.523003c0.125,0.289997 0.332998,0.545998 0.518999,0.808998c0.045,0.062 0.177999,0.132999 0.229,0.106998c0.075001,-0.032997 0.146999,-0.144997 0.158001,-0.23c0.025999,-0.189999 0.025999,-0.389999 0.016998,-0.579998c-0.042999,-0.963001 -0.122999,-1.925001 0.043001,-2.885c0.024,-0.147001 0.066,-0.312 0.028999,-0.447001c-0.361,-1.316999 -0.83,-2.589001 -1.642,-3.708c-0.025,-0.035 -0.041,-0.077999 -0.093,-0.177c0.579,0.257999 0.968,0.639999 1.283001,1.089001c0.315001,0.451 0.591,0.929998 0.902,1.427999c0.130999,-0.534 0.257,-1.048 0.382999,-1.562c0.179001,-0.747 -0.045,-1.358 -0.646999,-1.796999zm0.653999,-7.717001c-1.478001,-1.396 -3.23,-2.381 -5.07,-3.217c-2.491001,-1.132 -5.099001,-1.917 -7.759,-2.535c-0.951,-0.221 -1.908,-0.412 -2.924001,-0.63c0.409,0.507 0.771,0.961 1.143001,1.41c0.035,0.043 0.115,0.062 0.177999,0.071c1.667,0.173 3.269,0.604 4.813001,1.246c3.570999,1.481999 6.628,3.721999 9.352999,6.438001c0.025002,0.025 0.043001,0.056999 0.063002,0.084999c-0.093,-0.028 -0.163,-0.073999 -0.232,-0.122c-2.299,-1.596001 -4.664,-3.084 -7.151001,-4.372c-1.591999,-0.820001 -3.213999,-1.575001 -4.958,-2.021001c-0.410999,-0.105 -0.830999,-0.174999 -1.311999,-0.273c0.067,0.114 0.093,0.156 0.117,0.2c0.548,0.958 1.151,1.893001 1.627001,2.887c0.298,0.625 0.715,1.083 1.243999,1.486c1.98,1.507 4.162001,2.67 6.388,3.759001c0.02,0.008999 0.045,0.005999 0.117001,0.018999c-0.847,-1.344 -1.664001,-2.652 -3.124001,-3.389c0.378,0.062 0.753,0.125 1.114,0.235001c1.119999,0.343 2.062,1.003 2.946999,1.743c1.082001,0.903 2.129002,1.854 3.226,2.743999c0.566,0.460001 1.171001,0.903999 1.824001,1.222c0.685999,0.330999 1.448,0.502001 2.180998,0.729c0.187,0.062 0.389,0.072001 0.664001,0.120001c-0.09,-0.464001 -0.127998,-0.871 -0.250999,-1.249001c-0.836,-2.556 -2.27,-4.742001 -4.218,-6.586zm-13.483,-19.765c-0.541,-0.301 -1.116,-0.571 -1.706,-0.751c-1.209,-0.366 -2.467999,-0.372 -3.721,-0.369c-0.888,0.002 -1.776,0.014 -2.663,0.004c-0.222,-0.003 -0.442,-0.073 -0.663,-0.113c-0.001,-0.041 -0.003,-0.082 -0.004,-0.124c0.191,-0.073 0.377,-0.162 0.572,-0.218c0.618,-0.176 1.239,-0.334 1.855999,-0.506c0.120001,-0.035 0.231,-0.104 0.348001,-0.158c-0.004,-0.024 -0.008,-0.048 -0.012,-0.072c-0.08,-0.032 -0.16,-0.077 -0.245,-0.096c-1.24,-0.245 -2.475,-0.545 -3.726,-0.723c-2.118,-0.302 -4.218,-0.669 -6.269,-1.293c-0.174,-0.052 -0.367,-0.077 -0.547,-0.065c-2.074,0.143 -4.147,0.293 -6.222,0.444c-2.398001,0.175 -4.796,0.198 -7.191,-0.055c-2.721,-0.287 -5.353,-0.933 -7.901,-1.917c-3.661001,-1.415 -6.979,-3.433 -10.097002,-5.796c-0.052998,-0.04 -0.102997,-0.088 -0.154999,-0.131c0.102001,0.02 0.181,0.061999 0.257,0.108c2.847,1.7 5.784,3.217 8.887001,4.398999c2.629999,1.001 5.330999,1.724001 8.122,2.094c2.017,0.267 4.042,0.328 6.073999,0.315c2.272,-0.012 4.547,0 6.819,0.001c0.03,0 0.059,-0.004 0.092,-0.007c-0.008,-0.018 -0.009,-0.029 -0.013,-0.032c-0.054,-0.022 -0.108,-0.046 -0.163,-0.067c-2.031,-0.794 -3.957,-1.786 -5.715,-3.081c-0.531,-0.394 -1.101,-0.689 -1.711,-0.918c-0.473,-0.179 -0.948999,-0.354 -1.431999,-0.506c-2.479,-0.783 -5.045,-1.167 -7.596001,-1.628c-2.101999,-0.379 -4.202999,-0.768 -6.287001,-1.228c-1.9,-0.419001 -3.733999,-1.062 -5.438,-2.031c-2.926998,-1.662001 -4.647999,-4.15 -5.117001,-7.490999c-0.073997,-0.525002 -0.115997,-1.057001 -0.168999,-1.528002c-0.102001,0.190001 -0.213001,0.42 -0.344002,0.640001c-1.108997,1.865 -1.884998,3.851 -2.126999,6.02c-0.326,2.931 0.510002,5.459 2.633999,7.535999c0.086002,0.085 0.146,0.198999 0.202003,0.312c0.306,0.62 0.558998,1.271 0.914997,1.858c1.014,1.665 2.447002,2.919 4.059002,3.979c2.140999,1.405 4.480999,2.386 6.896,3.202c3.807999,1.288 7.726999,2.129 11.665999,2.886c3.208,0.617 6.423,1.209 9.63,1.832c2.502,0.484 4.935,1.17 7.238,2.305c2.889,1.422 5.564,3.13 7.829,5.439c0.075001,0.078 0.219001,0.12 0.333,0.124001c1.515,0.042999 3.02,0.184999 4.509001,0.466c4.167,0.79 7.984999,2.413 11.480999,4.808c0.057001,0.037001 0.118,0.065001 0.213001,0.123c-0.021,-0.125 -0.030001,-0.2 -0.048,-0.271999c-0.294001,-1.303 -0.675001,-2.581 -1.172001,-3.820001c-2.427999,-6.065 -6.466,-10.719 -12.177999,-13.899zm33.525002,-31.736999c-0.101002,-0.996002 -0.308002,-1.983002 -0.526001,-2.963001c-0.339001,-1.507 -1.260002,-2.504002 -2.753002,-2.954998c-0.667999,-0.202003 -1.354,-0.282001 -2.049999,-0.284c-1.367001,-0.003002 -2.705997,0.216999 -4.028999,0.543999c-1.102001,0.276001 -2.166,0.646999 -3.122002,1.277c-0.910999,0.600998 -1.59,1.382 -1.852997,2.471001c-0.162003,0.681 -0.116001,1.354 -0.005001,2.035999c0.043999,0.271 0.160999,0.389999 0.41,0.487c2.176998,0.868999 3.915001,2.247999 4.958,4.396c0.139,0.284 0.336998,0.427999 0.639999,0.459c1.041,0.115 2.061001,0.077 3.012001,-0.427999c0.611,-0.323999 1.219997,-0.287001 1.822998,0.006001c0.248001,0.121 0.489002,0.271 0.709,0.438c0.274002,0.209 0.523003,0.452 0.826,0.718c0.026001,-0.044001 0.044003,-0.084002 0.071003,-0.116001c1.507,-1.757999 2.116997,-3.805 1.889,-6.085999zm-16.100002,-4.448002c0.167,-0.108997 0.317001,-0.25 0.466999,-0.388c1.297001,-1.209 2.792,-2.086998 4.449001,-2.709c1.479,-0.555 3.015999,-0.804001 4.581001,-0.888c1.157997,-0.062 2.323997,-0.051998 3.450001,0.255001c0.769997,0.209999 1.508999,0.527 2.269997,0.777c0.162003,0.053001 0.408001,0.09 0.517002,0.006001c0.185001,-0.143002 0.045998,-0.369999 -0.021999,-0.560001c-0.003002,-0.007999 -0.010002,-0.014999 -0.013,-0.021c-0.542,-1.033001 -1.25,-1.925999 -2.209,-2.604c-1.728001,-1.221001 -3.671001,-1.461998 -5.708,-1.229c-0.334,0.038002 -0.623001,-0.022999 -0.896,-0.177998c-0.128002,-0.073002 -0.207001,-0.231003 -0.309002,-0.352001c0.019001,-0.021 0.037003,-0.045002 0.055,-0.066002c0.073002,0.008003 0.145,0.021 0.218002,0.022003c0.377998,0.011997 0.762997,0.07 1.132,0.021c1.189999,-0.158001 1.757999,-1.471001 1.072998,-2.439003c-0.23,-0.327 -0.528999,-0.562 -0.953999,-0.508999c-0.438,0.057999 -0.656002,0.382999 -0.805,0.760002c-0.035999,0.091999 -0.049999,0.195999 -0.061001,0.296997c-0.043999,0.381001 -0.071999,0.434002 -0.464001,0.421001c-0.368999,-0.011002 -0.737,-0.068001 -1.104,-0.124001c-0.455997,-0.063999 -0.751999,0.104 -0.895,0.545002c-0.115997,0.355999 -0.080997,0.716 0.094002,1.031998c0.188999,0.346001 0.429001,0.660999 0.635998,0.978001c-0.553997,0.230999 -1.162998,0.439999 -1.729,0.734001c-2.167,1.122997 -3.634998,2.822998 -4.188,5.239998c-0.056,0.236 -0.078999,0.486 -0.070999,0.729c0.011002,0.346001 0.202999,0.438999 0.486,0.25zm1.130001,3.025002c0.162998,-0.511002 0.27,-1.028999 0.487,-1.493999c0.504002,-1.076 1.400002,-1.774002 2.446999,-2.257999c2.484001,-1.142002 5.103001,-1.653004 7.831001,-1.421001c1.652,0.139999 3.02,0.829998 3.788002,2.41c0.002998,0.006001 0.012997,0.009998 0.042999,0.034c0.504997,-0.234001 0.786999,-0.624001 0.855,-1.172001c0.062,-0.504002 -0.153,-0.894001 -0.577,-1.118999c-0.548,-0.292 -1.107002,-0.592999 -1.697002,-0.771c-2.491997,-0.755001 -5.011997,-0.737 -7.529999,-0.126999c-1.917999,0.463997 -3.688,1.250999 -5.231998,2.497997c-0.602001,0.486 -1.152,1.022003 -1.495003,1.732002c-0.084999,0.175999 -0.163998,0.388 -0.149998,0.573997c0.043999,0.581001 0.688,1.117001 1.23,1.114002zm-79.146999,12.688c-2.023003,3.518999 -3.076,7.254 -3.077,7.827c-0.006001,1.791 0.132,3.576 0.400997,5.354c0.062,0.412 0.144001,0.821 0.215,1.231999c0.076,-0.075 0.101002,-0.151 0.124001,-0.228999c0.299,-0.993 0.559002,-2 0.901001,-2.978001c1.798,-5.125 4.533001,-9.722 7.919998,-13.945c0.123001,-0.153999 0.229,-0.336 0.290001,-0.523001c0.736,-2.267 1.792,-4.323999 3.146,-6.188c-1.517998,0.647001 -3.248001,0.880001 -5.307999,3.250999c2.530998,-4.881001 8.527,-6.814999 8.527,-6.814999c3.337,-2.985001 7.219,-4.958 11.519999,-6.139c0.347,-0.095001 0.698,-0.171001 1.049,-0.255001c-0.077,0.074001 -0.163,0.104 -0.248999,0.138c-3.200001,1.145 -6.150002,2.741001 -8.820002,4.846001c-3.323,2.619999 -5.834997,5.848 -7.337,9.827999c-0.160999,0.427999 -0.237,0.827 -0.071999,1.269001c0.112,0.299999 0.169998,0.618999 0.263,0.925999c0.705997,2.307001 1.811001,4.381001 3.587997,6.055c1.700001,1.604 3.743002,2.573 5.959002,3.227001c2.653999,0.777999 5.396,1.064999 8.125,1.422999c1.583,0.205999 3.158,0.455999 4.736,0.697c0.424,0.063 0.842999,0.168 1.294,0.261c-0.033999,-0.056 -0.044,-0.080999 -0.061,-0.101c-1.233,-1.382999 -2.259,-2.902 -3.075,-4.567999c-0.049,-0.103001 -0.162,-0.205 -0.27,-0.239c-0.728999,-0.230001 -1.453,-0.503 -2.200999,-0.653c-1.109001,-0.221001 -2.243,-0.306 -3.352001,-0.524c-5.946999,-1.181 -7.779999,-4.367001 -7.752998,-4.338001c1.806,1.918001 4.695999,2.459002 5.459,2.725c1.779999,0.618999 3.623999,0.787001 5.493,0.769001c0.546,-0.008001 1.091,-0.040001 1.653,-0.062c-1.676001,-5.474001 -1.456001,-10.809999 0.816,-16.036999c0.002,0.098 -0.02,0.192997 -0.044001,0.286999c-0.889,3.375999 -1.249001,6.791 -0.740999,10.267c0.613,4.220999 2.448,7.816999 5.513,10.78c2.297,2.219999 4.998,3.818 7.896,5.106c2.753,1.224 5.647,1.981 8.565,2.685c2.196,0.529 4.401,1.048 6.569,1.687c2.904,0.851 5.533001,2.249 7.773001,4.315c0.347,0.32 0.697001,0.647 0.983,1.021c1.886999,2.442 4.188,4.354 7.018999,5.6c0.179001,0.599 0.492001,1.231 0.979,1.891c0.692001,0.926 1.548,1.689 2.470001,2.374c0.261,0.193 0.608,0.304 0.933001,0.368c0.354,0.073 0.566998,-0.098001 0.688,-0.441c0.031998,-0.097 0.054001,-0.194 0.072998,-0.293c0.188999,-0.065 0.377003,-0.167 0.562,-0.311c0.126999,-0.098001 0.249001,-0.204 0.361,-0.315001c0.521,-0.524 0.886002,-1.148 1.181999,-1.816999c0.064003,-0.145 0.150002,-0.202 0.299,-0.221c0.351002,-0.046 0.703003,-0.095 1.050003,-0.162c5.632,-1.114 9.732998,-5.394 10.447998,-11.548c0.063999,-0.555 0.060001,-1.13 0.226002,-1.65c0.211998,-0.661 0.563999,-1.276999 0.855999,-1.913c0.257,-0.559 0.539001,-1.106999 0.761002,-1.681c0.227997,-0.587 0.257,-1.199 0.078999,-1.816c-0.061001,-0.212 -0.185001,-0.268 -0.349998,-0.165c-0.232002,0.146 -0.441002,0.329 -0.662003,0.494c-0.269001,0.200999 -0.52,0.431 -0.811001,0.589999c-0.237,0.131001 -0.505997,0.104 -0.717999,-0.139c0.049,-0.037 0.09,-0.066 0.125999,-0.099999c0.580002,-0.517 1.161999,-1.029 1.733002,-1.556001c0.067997,-0.061999 0.117001,-0.188 0.111,-0.285c-0.051003,-0.816999 -0.322002,-1.558 -0.903,-2.146c-0.747002,-0.757 -1.625999,-1.160999 -2.718002,-0.905001c-0.028,-0.407 -0.056,-0.476999 -0.290001,-0.602999c-1.518997,-0.823 -3.128998,-1.308001 -4.869999,-1.275c-1.280998,0.021999 -2.436001,-0.384001 -3.537998,-1c-0.342003,-0.191 -0.709,-0.363001 -1.086002,-0.463001c-1.189999,-0.316 -2.411999,-0.407 -3.639999,-0.438999c-0.101,-0.002001 -0.199999,-0.007999 -0.299999,-0.013c0.063,-0.070999 0.125999,-0.093 0.188999,-0.108c0.98,-0.231001 1.973,-0.261 2.973999,-0.188c0.324001,0.022999 0.689003,0.093 0.971001,-0.021c0.826,-0.336 1.627003,-0.738001 2.422001,-1.147001c0.223,-0.115 0.418999,-0.17 0.645,-0.085999c0.505001,0.188999 1.012001,0.375999 1.504002,0.594999c1.045998,0.465 2.116997,0.745001 3.271999,0.586c0.632,-0.086 1.247997,-0.225 1.799,-0.562c0.356998,-0.219999 0.639,-0.5 0.667,-0.955999c0.005001,-0.064001 0.063,-0.135 0.114998,-0.183001c0.148003,-0.137001 0.312,-0.26 0.461002,-0.396c0.439999,-0.406 0.625999,-0.91 0.571999,-1.505001c-0.047001,-0.5 -0.195,-0.582998 -0.630001,-0.362c-0.209999,0.106001 -0.428997,0.193001 -0.648998,0.025c0.278999,-0.177999 0.551998,-0.337999 0.813,-0.518c0.390999,-0.268 0.529999,-0.653999 0.515999,-1.118999c-0.041,-1.294001 -1.566998,-2.439001 -2.876999,-2.15c-0.431999,0.094999 -0.818001,0.265999 -1.054001,0.674999c-0.030998,0.054001 -0.119999,0.111 -0.18,0.107c-0.341999,-0.019001 -0.690998,-0.017 -1.021,-0.091c-0.605,-0.137001 -1.203999,-0.282 -1.827,-0.164001c-0.286999,0.055 -0.57,0.134001 -0.867001,0.202002c-0.231998,-0.808001 -0.613998,-1.526001 -1.123997,-2.177c-1.185001,-1.506001 -2.743,-2.460001 -4.540001,-3.049002c-2.330002,-0.764999 -4.724001,-0.848999 -7.121,-0.504997c-3.465,0.494999 -5.921001,2.375998 -7.246,5.638998c-0.328001,0.807001 -0.497,1.677999 -0.743999,2.521c-0.397001,1.356001 -0.927,2.66 -1.631001,3.892c-1.133,1.978001 -2.620001,3.606001 -4.657001,4.68c-2.288,1.205999 -4.72,1.447 -7.239,0.999c-0.478,-0.085 -0.948,-0.207999 -1.477,-0.327001c0.921,-0.054998 1.768,-0.073999 2.607,-0.158998c2.337,-0.235001 4.527,-0.937 6.517,-2.197001c2.367001,-1.500999 4.137001,-3.469 4.877001,-6.261c0.394999,-1.491001 0.949999,-2.938 1.643,-4.324001c0.461,-0.927999 0.971001,-1.816999 1.683001,-2.58c1.182999,-1.268 2.668999,-1.983 4.306999,-2.443998c0.504,-0.141003 1.004,-0.297001 1.500999,-0.457001c0.246,-0.080002 0.4,-0.254002 0.497,-0.502998c0.274,-0.712002 0.353001,-1.439003 0.205,-2.188004c-0.228998,-1.177998 -0.804998,-2.177998 -1.58,-3.071999c-0.665998,-0.771 -1.5,-1.334 -2.334,-1.896999c-0.406,-0.271 -0.799999,-0.566002 -1.17,-0.885002c-0.32,-0.271999 -0.514999,-0.646 -0.494999,-1.072998c0.035,-0.763 0.08,-0.883999 0.84,-0.631001c0.118999,0.040001 0.237,0.087002 0.352999,0.138c0.621,0.266998 1.239,0.539001 1.863001,0.799999c1.198,0.500999 2.441,0.686001 3.716999,0.379002c1.415001,-0.338001 2.413,-1.169003 2.862001,-2.589001c0.091999,-0.291 0.113998,-0.599998 -0.042002,-0.861c-0.074999,-0.129002 -0.268,-0.256001 -0.410999,-0.259998c-0.129,-0.004002 -0.281,0.142998 -0.386999,0.257999c-0.065001,0.071999 -0.063002,0.205997 -0.092001,0.312c-0.146,0.548 -0.385,1.031998 -0.923,1.298c-0.101999,0.050999 -0.217999,0.063999 -0.327999,0.096996c0.716999,-0.743999 1.105,-1.585999 1.052999,-2.600998c-0.039,-0.771 -0.643,-1.272999 -1.42,-1.229c-0.226,0.013 -0.385,0.118999 -0.41,0.339001c-0.031,0.266998 -0.018999,0.536999 -0.024,0.806c-0.008999,0.32 0.014999,0.646 -0.029999,0.959999c-0.071001,0.514999 -0.388,0.849998 -0.883001,1.008999c-0.239,0.076 -0.469,0.035 -0.691,-0.077999c0.312,-0.063999 0.610001,-0.158001 0.767,-0.450001c0.151001,-0.279999 0.305,-0.571999 0.381001,-0.876999c0.163,-0.658001 0.084,-1.292999 -0.521,-1.696999c-0.272001,-0.181 -0.640001,-0.256001 -0.974001,-0.302002c-0.716999,-0.099998 -1.404999,0.103001 -2.098,0.263c-0.416,0.097 -0.847,0.160999 -1.271,0.161999c-0.400999,0.001003 -0.806,-0.084 -1.202999,-0.154999c-2.418001,-0.436001 -4.848001,-0.250999 -7.31,-0.222c-2.663,0.033001 -5.326,0.017002 -7.989,0.019001c-4.767,0 -9.535,0.001999 -14.305,0.001999c-1.969,0 -3.939,-0.02 -5.908,-0.007c-2.715,0.017002 -5.400999,0.323002 -8.027,1.012001c-10.002998,2.616001 -17.488998,8.030998 -22.423,17.108c-2.174999,4.004 -3.417,8.286999 -3.854,12.784c-0.052998,0.519999 2.935001,-5.042 2.906002,-4.496z" fill="#0D0D0D"/>
  <path id="svg_70" d="m32.721001,0.608c-0.839001,1.789 -0.849001,2.545 0.078999,4.238c0.700001,1.278 2.560001,0.141 2.308002,1.568c-0.106003,1.24 -1.405003,2.602 -1.646,2.898c-0.296001,0.351 -0.461002,0.696 -0.898003,0.606999c-0.399998,-0.082 -0.778999,-0.275 -1.101,-0.514c-1.136999,-0.844999 -2.191,-1.787 -3.045,-2.927999c-1.542999,-2.059 -0.907,-3.308 0.900002,-4.95c0.764999,-0.692 3.493,-1.11 3.403,-0.919z" fill="#E65270"/>
  <path id="svg_71" d="m31.048,7.399c0.445,0.486 1.138,0.955999 1.861,1.438c0.383999,0.254 -0.758999,-2.867 -1.092001,-3.7c-1.091999,-2.729 0.338999,-4.42 -0.055,-4.211c-0.865999,0.46 -2.102999,2.067 -2.188999,3.06c-0.096001,1.075 0.739,2.608 1.475,3.413z" fill="#2B2B2B" opacity="0.2"/>
  <g id="svg_72">
   <path id="svg_73" d="m32.375,0.775c-0.84,1.788 -0.849001,2.544 0.080002,4.237c0.698997,1.277 1.022999,2.564 0.771,3.993c-0.028,0.158999 -0.059002,0.321 -0.111,0.474999c-0.149002,0.429001 -0.412003,0.639001 -0.849003,0.549001c-0.4,-0.082 -0.829998,-0.217 -1.15,-0.455c-1.136999,-0.845 -2.191,-1.787 -3.045,-2.928c-1.184,-1.579 -1.053999,-2.657 -0.157,-3.854c0.257,-0.342 0.415001,-0.332 0.746,-0.394c0.427999,-0.081 0.514999,0.515 0.379,0.756c-0.313,0.554 -0.518999,1.111 -0.557999,1.549c-0.095001,1.076 0.507,2.244 1.242998,3.049c0.682001,0.746 2.061001,1.904 3.002003,2.185c0.226997,-0.871 -0.257,-2.609 -0.564003,-3.453c-0.373999,-1.031 -1.505999,-2.912 -1.221998,-4.138c0,0 0.399,-1.134 0.821999,-1.422c0.423002,-0.286 0.613001,-0.149 0.613001,-0.149z" fill="#0D0D0D"/>
  </g>
  <path id="svg_74" d="m27.896999,34.688999" fill="url(#SVGID_39_)"/>
  <g id="svg_75" opacity="0.2">
   <path id="svg_76" d="m-18.607,-19.863001c-0.115,-0.005999 -0.220999,0.006001 -0.308001,0.053001c0.109001,0.005999 0.212002,-0.014 0.308001,-0.053001z" fill="#8B4FBA"/>
  </g>
  <path id="svg_77" d="m33.088001,-34.854c0.980999,1.490002 2.084,1.993999 3.329998,3.167c1.185001,1.113001 2.095001,2.455999 3.275002,3.549c0.924,-0.192999 1.962997,-0.036999 2.910999,-0.084999c0.678001,-1.674 3.970001,-0.081001 4.271,0.998999l0.437,-0.654999c0.949001,-1.868999 -2.455002,-1.993999 -4.393002,-1.800001c-1.360001,0.135 -7.23,-1.407999 -7.036999,-8.979c-0.660999,-1.014999 -2.217999,-0.023998 -2.220001,-1.347c-0.000999,-1.354 0.021,-3.742001 1.191002,-4.604c-0.334999,-1.181 -1.498001,0.068001 -1.819,0.541c-0.717999,1.059002 -1.743999,2.934002 -1.977001,4.188999c-0.393999,2.144001 0.958,3.396 2.031002,5.025002z" fill="#430A1D" opacity="0.2"/>
 </symbol>
 <symbol viewBox="-3 -3.5 6 7" id="New_Symbol_2">
  <path id="svg_78" d="m0,-3.5c-0.184,0 -0.368,0.051 -0.53,0.152l-2,1.25c-0.292,0.183 -0.47,0.503 -0.47,0.848l0,2.5c0,0.345 0.178,0.666 0.47,0.848l2,1.25c0.162,0.101 0.346,0.152 0.53,0.152s0.368,-0.051 0.53,-0.152l2,-1.25c0.292,-0.182 0.47,-0.503 0.47,-0.848l0,-2.5c0,-0.345 -0.178,-0.665 -0.47,-0.848l-2,-1.25c-0.162,-0.101 -0.346,-0.152 -0.53,-0.152z" fill="#FFFFFF"/>
  <polygon id="svg_79" points="-3,3 3,3 3,-3 -3,-3 	" fill="none"/>
 </symbol>
 <g>
  <title>background</title>
  <rect fill="none" id="canvas_background" height="222" width="222" y="-1" x="-1"/>
 </g>
 <g>
  <title>Layer 1</title>
  <g id="svg_80" transform="matrix(0.609758 0 0 0.573533 -690.609 73.5537)">
   <use id="svg_81" xlink:href="#New_Symbol_3" transform="matrix(3.5035 0 0 -3.5035 1370.34 277.199)" y="10.25813" x="-66.367463" height="101.91" width="100.904"/>
   <g id="svg_82">
    <path id="svg_83" d="m1511.181274,138.084808l67.404053,0l0,16.225006l-48.820068,0l0,28.612976l46.019043,0l0,15.63501l-46.019043,0l0,43.95401l-18.583984,0l0,-104.427002l0,0z"/>
    <path id="svg_84" d="m1595.105225,131.004791l17.698975,0l0,111.506989l-17.698975,0l0,-111.506989z"/>
    <path id="svg_85" d="m1632.125244,147.671783c0,-2.851013 1.057007,-5.333008 3.171997,-7.447998c2.113037,-2.112 4.792969,-3.171997 8.039063,-3.171997c3.243896,0 5.974976,1.011993 8.187988,3.023987c2.213013,2.016998 3.317993,4.549011 3.317993,7.596008c0,3.049988 -1.10498,5.582001 -3.317993,7.597015c-2.213013,2.016998 -4.940063,3.02298 -8.187988,3.02298s-5.926025,-1.056 -8.039063,-3.171997c-2.115967,-2.112976 -3.171997,-4.595001 -3.171997,-7.447998zm2.507935,24.042023l17.698975,0l0,70.798004l-17.698975,0l0,-70.798004z"/>
    <path id="svg_86" d="m1673.865234,171.713806l16.813965,0l0,11.355988l0.295044,0c1.569946,-3.539001 4.301025,-6.658997 8.186035,-9.36499c3.88501,-2.70401 8.47998,-4.057007 13.791016,-4.057007c4.620972,0 8.577881,0.812012 11.872925,2.434021c3.294067,1.622986 5.99707,3.761993 8.113037,6.415985c2.113037,2.654999 3.661987,5.70401 4.645996,9.144989c0.97998,3.443024 1.476929,6.983002 1.476929,10.620026l0,44.248993l-17.699951,0l0,-39.231995c0,-2.065002 -0.145996,-4.229004 -0.439941,-6.490021c-0.295044,-2.260986 -0.93811,-4.300995 -1.918091,-6.121002c-0.98291,-1.817993 -2.335938,-3.317993 -4.057983,-4.498993c-1.721924,-1.179993 -4.006958,-1.769989 -6.855957,-1.769989c-2.854004,0 -5.312012,0.565979 -7.375,1.695007c-2.063965,1.130981 -3.763062,2.580994 -5.088013,4.352997c-1.328003,1.769989 -2.338989,3.811981 -3.022949,6.119995c-0.68811,2.311981 -1.033081,4.645996 -1.033081,7.005981l0,38.938019l-17.697021,0l0,-70.798004l-0.006958,0l0,0z"/>
    <path id="svg_87" d="m1760.000244,131.004791l17.698975,0l0,70.502991l0.442993,0l26.843994,-29.794006l22.713989,0l-30.678955,32.007019l32.597046,38.790985l-23.452026,0l-28.020996,-36.283997l-0.442993,0l0,36.283997l-17.697021,0l0,-111.506989l-0.005005,0z"/>
   </g>
  </g>
 </g>
</svg>